<?xml version="1.0" encoding="utf-8"?>
<!-- Generator: Adobe Illustrator 15.0.2, SVG Export Plug-In . SVG Version: 6.00 Build 0)  -->
<!DOCTYPE svg PUBLIC "-//W3C//DTD SVG 1.1//EN" "http://www.w3.org/Graphics/SVG/1.1/DTD/svg11.dtd">
<svg version="1.1" id="Calque_1" xmlns="http://www.w3.org/2000/svg" xmlns:xlink="http://www.w3.org/1999/xlink" x="0px" y="0px"
	 width="612px" height="792px" viewBox="0 0 612 792" enable-background="new 0 0 612 792" xml:space="preserve">
<g>
	<g>
		<path fill-rule="evenodd" clip-rule="evenodd" fill="#57C264" d="M128.375,313c-0.877,1.973-2.19,3.509-2.25,6.3
			c1.913,0.497,3.047,1.048,4.725,0.675c1.459-0.325,2.223-1.575,3.825-1.8c1.679-0.235,4.339-0.277,6.075,0.675
			c3.009,1.65,2.31,6,5.625,6.75c2.518,0.569,6.919-0.884,7.875-2.7c1.477-2.805-0.984-6.132-0.675-9.9c1.125,0,2.25,0,3.375,0
			c-0.161,2.589,2.126,5.815,4.95,6.075c3.588,0.33,7.032-2.661,4.725-6.075c1.425,0,2.85,0,4.275,0
			c-0.187,1.85,1.471,3.104,3.15,3.825c6.834,2.935,19.985,2.952,21.6-3.825c1.05,0,2.1,0,3.15,0
			c-0.282,2.071-1.805,4.438-1.575,7.425c0.14,1.811,1.803,7.098,2.7,7.875c1.25,1.083,7.545,3.362,10.8,2.25
			c1.54-0.526,3.214-4.576,4.275-6.075c1.669-2.358,2.761-3.979,4.275-5.85c-4.815-1.785-9.66-3.541-14.175-5.625
			c138.973,0,277.957,0,416.925,0c0,55.274,0,110.552,0,165.825c-210.687,0-421.335,0-632.025,0c0-55.274,0-110.552,0-165.825
			C36.125,313,82.25,313,128.375,313z M172.7,326.725c1.379,0.495,2.921,0.828,4.95,0.675c1.647-2.444,4.082-5.876,1.575-8.775
			C174.44,317.51,169.189,322.25,172.7,326.725z M221.075,319.75c-3.7,4.101-7.509,8.091-9.675,13.725
			c2.495,2.68,4.697,5.653,8.1,7.425c11.936,2.042,14.324-7.227,17.1-15.075C231.44,323.785,226.415,321.61,221.075,319.75z
			 M240.425,327.4c-1.423,2.932-4.254,6.648-3.825,10.35c0.235,2.026,3.532,6.664,5.4,7.875c2.7,1.751,6.565,2.141,9.45,4.5
			c0.79,0.646,1.14,1.741,2.025,2.25c2.634,1.516,7.223,2.344,11.025,2.475c2.326-4.499,3.126-10.524,4.5-15.975
			C259.646,334.878,250.046,331.129,240.425,327.4z M227.825,397.375c-3.208-5.872-5.324-11.583-9-16.65
			c-1.788-2.464-3.935-4.9-5.175-7.65c-1.565-3.472-1.822-7.516-2.925-11.475c-0.464-1.667-1.627-3.728-2.475-5.85
			c-0.851-2.131-1.324-4.613-2.25-6.3c-0.762-1.39-2.109-2.86-3.15-4.5c-2.215-3.489-3.85-5.896-6.525-8.775
			c-1.338-1.439-3.175-3.405-4.05-3.825c-2.136-1.025-6.465-0.974-8.325-0.45c-4.254,1.198-6.259,4.954-9.45,7.2
			c-2.142,1.508-4.263,2.8-6.525,3.825c-3.519,2.94-6.058,6.841-8.55,11.025c-2.317,3.889-2.508,5.176-0.9,9.45
			c1.52,4.038,2.562,7.32,4.05,10.8c1.994,2.341,5.683,4.137,6.975,6.975c1.629,3.578,0,8.629,2.025,12.375
			c1.89-0.137,2.6-1.893,4.5-2.475c1.225-0.375,2.876-0.511,4.5-0.9c1.454-0.349,3.224-0.942,3.825-0.9
			c2.779,0.195,5.863,4.948,7.425,7.2c0.534,0.771,1.087,1.691,1.35,2.476c4.682,0.944,8.394,2.786,11.475,5.399
			c2.24,1.9,4.445,3.556,5.85,5.176c0.942,1.086,2.266,3.869,3.825,3.824c0.825-0.023,1.936-1.529,2.925-2.25
			c3.139-2.287,8.964-5.346,13.5-4.5C231.302,403.088,229.301,400.077,227.825,397.375z M268.775,346.975
			c0.024,0.71,0.761,1.798,0.9,2.925c0.111,0.898-0.145,1.876,0,2.475c0.317,1.308,1.948,3.216,2.925,4.5
			c1.174,1.543,2.333,3.695,3.375,4.275c1.719,0.957,7.568,1.873,10.35,1.125c1.556-0.418,3.03-3.072,5.4-2.025
			c0.966-3.834,1.457-8.143,3.375-11.025c-8.134-3.267-16.118-6.683-24.525-9.675C271.033,342.521,268.681,344.17,268.775,346.975z
			 M170.225,400.075c-0.334-4.131-0.409-12.108-1.8-14.625c-0.704-1.273-2.728-4.769-3.375-5.625
			c-0.9-1.193-2.699-1.759-3.375-2.925c-0.833-1.438-1.224-3.64-1.8-5.175c-3.834-10.224-9.993-18.213-19.35-22.725
			c-3.287-0.437-4.791,0.909-7.65,0.9c-5.266,3.395-7.314,7.183-10.35,13.275c-2.147,4.311-5.148,8.203-6.525,11.925
			c-0.661,1.788-1.466,5.284-1.125,6.975c0.406,2.011,2.365,2.339,3.6,3.6c2.86,2.918,5.234,7.765,6.525,11.7
			c1.134,3.459,1.321,7.206,2.25,11.25c0.383,1.667,1.976,4.11,0,5.85c-2.258-8.269-4.584-20.688-10.35-26.325
			c-2.255-2.205-5.472-2.575-9-1.575c-7.458,6.191-6.599,20.7-10.35,30.6c-1.347,0.678-2.002,2.048-3.6,2.476
			c-0.93,1.095-1.85,2.2-2.925,3.149c-2.863,5.476-8.325,11.692-7.65,18.9c0.843-0.991,1.147-3.607,2.475-3.375
			c0.499,0.917-0.54,2.99,0.45,3.825c1.559,0.283,1.142-1.409,2.7-1.125c1.384,0.266,0.424,2.876,2.25,2.699
			c1.147-1.027,0.895-3.455,2.475-4.05c0.929,1.321,0.129,4.371,1.575,5.175c1.43-0.145,0.542-2.608,2.025-2.699
			c0.548,0.951,0.464,2.535,1.8,2.699c1.018-0.856,0.845-2.904,2.25-3.375c0.985,1.099-0.551,3.371,1.125,3.825
			c1.279,0.079,0.783-1.617,1.8-1.8c0.83,0.596,0.07,2.78,1.35,2.925c1.147,0.021,0.859-1.392,1.8-1.575
			c0.864,0.485,0.543,2.157,1.8,2.25c1.118,0.143,0.744-1.206,1.8-1.125c0.392,0.809,0.167,2.234,1.35,2.25
			c0.841-0.583,1.083-1.767,2.025-2.25c0.644,0.482,0.392,1.858,1.35,2.025c1.052-0.073,0.974-1.276,2.025-1.35
			c0.838,1.651,2.104,1.679,3.375,0.449c0.301,0.449,0.525,0.976,1.125,1.125c0.754-0.371,1.159-1.091,2.025-1.35
			c5.093-0.659,9.469-2.382,14.85-3.15c0.316,0.359,0.775,0.575,1.35,0.676c3.271-1.551,8.301,2.644,11.025,0.225
			c2.488-3.73,4.7-8.693,8.55-11.7c2.961-2.313,6.612-3.388,9.9-5.399c0.598-0.003,1.285,0.085,1.575-0.226
			C172.006,418.795,171.008,409.754,170.225,400.075z M296.9,349.9c-1.509,2.766-1.901,6.648-2.925,9.9
			c0.895,0.076,2.17-0.057,3.15,0.45c1.583,1.455,1.428,3.858,2.25,6.075c1.148,3.097,6.668,8.931,9.45,9.9
			c2.571,0.896,4.026-0.338,6.075-0.9c2.473-0.678,5.095-1.271,6.975-2.7c1.03-3.92,1.86-8.039,3.6-11.25
			C316.101,357.399,306.378,353.772,296.9,349.9z M325.925,371.95c0.286,0.764,1.248,0.852,1.351,1.8
			c0.974,4.243,4.335,6.124,7.199,8.55c2.443,2.069,4.924,4.03,7.875,4.95c0.486,0.339,0.822,0.828,1.125,1.35
			c1.241-0.625,4.824-0.575,4.275-1.575c1.464,0.956,3.037-1.109,5.4-0.675c-0.295-1.162,0.513-0.168,0.899-0.45
			c2.733-1.994,2.975-7.634,4.05-11.7c-10.1-3.775-19.761-7.989-29.925-11.7C327.57,365.898,326.825,368.505,325.925,371.95z
			 M242.675,399.4c0.549-0.883,1.647-1.553,2.25-2.476c0.756-1.158,0.978-2.487,1.575-3.15c0.668-0.74,2.382-1.811,3.825-2.7
			c1.799-1.109,4.572-1.732,4.95-3.15c0.428-1.606-1.068-5.498-1.8-7.2c-2.646-6.149-6.838-12.755-12.15-15.075
			c-6.51-2.843-12.644,1.779-16.425,4.5c-1.933,1.391-5.327,3.37-5.625,5.4c-0.42,2.863,2.336,5.35,3.825,7.65
			c0.889,1.373,1.769,2.958,2.25,4.05c3.05,6.912,7.103,12.254,8.55,20.7c1.808,0.442,2.613,1.888,4.275,2.475
			C240.402,406.43,240.241,403.315,242.675,399.4z M360.575,375.325c-0.515,3.51-1.012,7.652-2.025,11.25
			c1.01,1.165,1.74,2.609,3.601,2.925c0.411,0.691-0.203,1.012,0.225,1.575c4.983,3.867,10.415,7.285,17.775,8.774
			c4.098-3.552,6.594-8.706,10.35-12.6C380.515,383.286,370.614,379.236,360.575,375.325z M293.075,430.9
			c-0.4-3.473-0.275-6.78-0.675-9.9c-1.447-11.29-5.472-21.458-11.475-27.9c0.503-1.853-1.174-1.526-1.35-2.7
			c-1.887-5.68-6.534-11.808-12.6-10.8c-0.081,0.013-0.769,0.129-0.9,0.225c-2.786,2.028-6.424,4.565-8.325,7.2
			c-0.8,1.109-1.09,2.542-2.025,3.6c-1.344,1.522-3.307,1.959-4.95,3.15c-5.505,3.989-7.855,9.982-10.125,16.425
			c0.863,1.462,1.905,2.745,3.6,3.375c6.205,6.995,11.326,15.073,15.75,23.85c2.692-1.121,7.464-2.646,11.475-1.125
			c4.128,2.997,6.758,7.492,8.55,12.825c2.255-0.201,2.788-1.436,4.725-1.575c3.383-0.242,5.109,3.502,8.325,2.476
			C295.451,443.613,293.794,437.142,293.075,430.9z M392.075,387.925c-1.842,3.333-4.036,6.314-6.3,9.226
			c-1.196,5.443,2.657,5.567,5.625,7.199c0.8,0.44,1.466,1.462,2.475,2.025c1.135,0.634,2.872,0.733,4.5,1.35
			c2.307,0.874,3.934,2.29,5.175,2.476c3.001,0.449,4.099,0.445,5.625,1.575c1.382-5.068,2.944-9.956,4.275-15.075
			C406.699,393.4,399.2,390.85,392.075,387.925z M352.475,389.275c-2.371,0.104-4.221,0.729-6.074,1.35
			c1.998,2.277,4.918,3.632,8.774,4.05C356.122,391.903,353.675,390.644,352.475,389.275z M205.1,407.725
			c-3.15-2.358-6.874-4.309-11.025-5.175c-1.892-1.711-2.159-3.978-3.825-6.075c-0.944-1.187-3.84-3.955-5.4-4.274
			c-3.2-0.656-4.903,1.42-7.65,2.925c-1.267,0.694-2.778,0.921-3.6,1.575c-2.811,2.237-1.592,5.435-1.125,9.675
			c0.792,7.186,0.925,14.319,2.25,20.7c4.886-1.068,12.332-2.339,18.225-0.9c2.153,0.525,3.57,2.067,5.4,1.8
			c2.291-5.208,4.84-10.16,9.675-12.824c0.653-0.473,2.443,0.192,2.475-0.9C210.479,411.451,207.308,409.378,205.1,407.725z
			 M436.85,405.7c-6.94-2.755-13.821-5.564-20.699-8.101c-0.048-0.271-0.25-0.138-0.45,0c-1.24,4.516-2.217,10.487-4.05,15.075
			c9.46,2.84,14.277,10.323,24.975,11.925c2.75-4.675,3.344-11.506,6.525-15.75C441.489,407.176,439.029,406.564,436.85,405.7z
			 M446.525,409.75c-0.398,0.202-0.657,0.543-1.125,0.675c-1.115,4.511-4.523,6.727-4.726,12.15c2.085,2,5.564,4.94,8.55,6.524
			c0.461,0.244,0.588-0.156,1.125,0c0.638,0.187,0.932,0.849,1.575,1.125c1.422,0.611,2.564,0.322,3.825,0
			c1.84,1.328,4.32,1.438,6.525,1.351c0.961-1.085,0.802-2.463,1.35-4.275c0.83-2.743,3.135-6.094,2.25-9.899
			C459.434,414.841,453.053,412.223,446.525,409.75z M266.75,467.8c-1.143-4.634-2.145-9.357-4.05-14.175
			c-1.758-4.443-2.997-9.1-4.725-13.725c-0.836-2.237-2.417-4.008-3.6-6.075c-3.119-5.451-8.099-15.464-13.725-18.226
			c-4.618-2.266-10.547-6.012-15.525-4.274c-2.472,0.862-4.974,3.659-7.875,4.95c-0.974,0.433-2.604,1.116-3.825,1.125
			c-0.803,0.005-1.607-0.553-2.475-0.45c-1.419,0.168-3.882,1.769-4.95,3.149c-2.214,2.863-3.718,6.069-4.05,9.676
			c10.555,8.944,20.541,18.458,24.525,33.975c0.614,0.511,1.298,0.951,2.025,1.35c7.26-1.468,11.762,3.472,16.65,5.851
			c0.867,1.533,1.995,2.805,3.6,3.6c0.798-0.102,0.591-1.209,1.35-1.35c0.794,0.119,1.006,0.66,1.8,0.225
			c0.896-0.154,0.535-1.565,1.575-1.575c0.712,0.488,0.973,1.427,2.025,1.575c1.012-0.563,1.202-1.948,2.475-2.25
			c-0.313,0.717,0.625,1.851,1.575,2.025c1.376-0.124,0.957-2.043,2.025-2.476c0.699,0.801,0.808,2.192,2.025,2.476
			c1.186-0.015,1.194-1.206,2.25-1.351c0.496,0.372,0.745,1.791,1.575,1.125C268.777,471.033,267.173,469.516,266.75,467.8z
			 M88.325,420.55c1.317-1.739,3.767-2.104,2.925-4.725c-1.065-3.316-8.053-5.748-12.15-3.825c-1.463,1.527-3.489,2.884-4.95,4.725
			c-2.742,3.455-5.916,7.795-5.175,13.051c2.277-0.44,4.229-0.209,6.3,0.675c0.927,0.177,0.423-1.077,1.35-0.9
			c1.081,0.119,0.974,1.427,2.25,1.351c0.646-0.33,0.389-1.562,1.575-1.351c0.564,0.41,0.58,1.37,1.575,1.351
			C84.196,428.411,86.039,423.571,88.325,420.55z M314.9,439c-0.689-2.847,2.393-4.354,2.475-7.425
			c0.06-2.235-1.738-6.156-3.375-8.55c-3.799-5.557-11.67-11.716-20.025-8.325c0.093,5.695-0.51,11.192,0.45,16.425
			c0.364,1.983,1.196,3.649,1.35,5.625c0.344,4.416-0.857,8.565-0.225,13.05c0.851,0.622,2.019-0.644,3.15-0.899
			c3.466-0.786,8.22-1.041,11.475-1.351C312.24,445.19,311.662,440.187,314.9,439z M2.375,416.5c-3.275,2.351-6.486,8.238-6.3,13.05
			c1.848,0.036,2.933,2.325,4.5,0.675c0.971,0.005,0.829,1.121,1.8,1.125c0.75,0.001,0.768-0.731,1.575-0.675
			c0.556,0.194,0.666,0.834,1.125,1.125c1.629-0.747,2.56-0.199,3.825,0.45c1.685-4.717,6.857-5.147,12.6-5.4
			c0.724-2.876,3.563-3.636,5.175-5.625C21.586,415.852,10.747,410.492,2.375,416.5z M470.15,438.775
			c5.955,3.039,12.079,3.497,15.3-1.575c1.974-3.108,3.49-6.632,4.95-9.9c-7.392-3.033-14.884-5.966-22.275-9
			C468.213,425.366,466.773,433.624,470.15,438.775z M50.75,425.275c-4.082-2.455-9.95-7.347-16.2-5.625
			c-2.1,0.578-3.255,2.213-5.4,3.149c-0.657,1.457-2.07,2.164-3.15,3.375c-0.918,1.03-1.788,3.46-3.15,3.825
			c-1.603,0.43-3.542-0.622-4.95-0.45c-4.51,0.551-6.244,4.703-6.75,10.125c1.361-0.011,1.175,1.525,2.7,1.351
			c0.976-0.675,1.14-2.161,2.25-2.7c1.206,1.269,0.633,4.316,2.7,4.725c0.894-0.606,0.362-2.638,1.575-2.925
			c0.602,1.499,0.444,3.756,2.475,3.825c1.175-0.625,0.341-3.26,1.8-3.601c0.892,1.284,0.428,3.923,2.475,4.051
			c1.226-0.649,0.464-3.286,2.025-3.601c0.986,1.715,0.561,4.84,2.925,5.175c1.195-1.055,0.783-3.716,2.025-4.725
			c0.953,1.372,0.699,3.951,2.7,4.275c1.229-0.947,1.014-3.337,2.7-3.825c1.215,0.885,0.5,3.7,1.8,4.5
			c3.181-5.294,7.612-9.338,14.175-11.25C55.588,430.891,52.532,428.177,50.75,425.275z M332.675,425.5
			c-6.631-1.729-10.104,3.359-13.05,7.425c-3.239,4.472-6.33,9.104-6.75,15.3c4.705,1.437,7.875,3.784,10.8,6.525
			c1.596-1.18,2.514-3.037,4.726-3.6c1.428-7.348,4.374-13.176,8.324-18C342.438,431.162,335.431,426.219,332.675,425.5z
			 M491.525,427.75c-1.173,4.297-3.413,7.676-2.7,11.925c0.559,3.333,3.548,8.19,7.649,8.775c1.098,0.156,2.533-0.468,3.825-0.226
			c1.043,0.196,1.691,1.216,2.476,1.575c2.08,0.955,5.113,1.4,7.425,1.125c6.539-0.779,7.764-6.054,9.225-11.7
			C510.421,435.104,500.786,431.614,491.525,427.75z M368.9,450.925c-1.697-7.637-8.913-18.414-15.75-21.6
			c-4.678-2.18-8.763,0.665-11.7,2.925c-4.864,3.742-7.643,8.673-9.675,15.525c0.896,2.374,4.806,0.362,6.524,1.8
			c6.338,0.592,10.317,5.41,14.4,9c0.543-0.582,0.011-2.239,1.125-2.25c1.037,0.987,0.989,3.06,2.925,3.149
			c0.494-0.78-0.07-2.62,0.9-2.925c1.435,0.215,0.914,2.386,2.475,2.476c1.148-0.201,0.307-2.394,1.35-2.7
			c1.467,0.934,0.679,4.121,3.375,3.825c0.718-0.858,0.429-2.723,1.801-2.926c0.504,0.921,0.659,2.191,1.8,2.476
			C369.433,457.843,369.425,453.285,368.9,450.925z M219.05,451.375c-1.535-2.551-4.091-5.772-5.625-7.2
			c-0.625-0.582-0.873-1.516-1.35-2.024c-0.273-0.291-0.962-0.314-1.35-0.676c-1.158-1.075-2.118-2.913-3.15-3.824
			c-1.225-1.081-3.3-2.386-5.175-3.601c-2.581-1.671-5.03-3.917-7.425-4.5c-7.159-1.743-15.162-1.095-22.275,0.675
			c-10.136,2.521-18.931,7.362-20.475,16.65c0.175,0.05,0.262,0.188,0.225,0.45c9.048,3.102,13.488,10.812,19.8,16.649
			c1.015,0.19,1.124-0.526,1.8-0.675c0.755,0.37,0.859,1.392,1.8,1.575c1.588,0.014,1.273-1.877,2.475-2.25
			c0.753,0.521,0.892,1.658,2.25,1.575c1.213-0.287,0.904-2.096,2.25-2.25c0.406,0.944,0.44,2.26,1.35,2.7
			c1.611,0.11,1.146-1.855,2.7-1.801c0.571,0.479,0.653,1.448,1.575,1.575c1.69,0.115,1.641-1.509,3.15-1.575
			c0.568,0.482,0.703,1.397,1.35,1.801c1.554,0.054,1.208-1.792,2.475-2.025c0.868,0.482,0.845,1.855,2.025,2.025
			c0.895-0.381,0.863-1.688,1.8-2.025c1,0.5,0.69,2.31,2.025,2.475c1.32-0.104,1.039-1.811,2.25-2.024
			c0.462,0.813,0.702,1.848,1.575,2.25c1.044-0.156,0.998-1.402,1.8-1.8c0.35,0.925,0.985,1.564,1.575,2.25
			c1.232,0.182,1.018-1.083,2.25-0.9c0.649,0.4,0.574,1.526,1.575,1.575c1.271,0.295,1.058-0.893,2.025-0.9
			c2.417,3.002,6.606,1.494,9.9,0.675C224.448,460.142,221.982,456.248,219.05,451.375z M415.025,429.325
			c-7.516-2.017-12.477,3.379-15.301,7.649c-1.09,1.648-3.536,4.772-3.375,6.525c0.075,0.813,1.146,1.8,1.801,2.925
			c1.251,2.153,2.329,4.298,3.149,6.3c0.416,1.015,0.055,2.954,1.8,2.926c0.97-0.981,0.164-3.736,1.801-4.051
			c0.998,1.401,0.91,3.89,2.699,4.5c1.235-0.415,0.841-2.459,1.801-3.149c0.876,0.474,0.649,2.05,2.25,1.8
			c1.146-1.179,0.907-3.742,2.699-4.275c0.252,1.398-0.042,3.343,1.351,3.601c1.31-0.266,0.939-2.21,2.25-2.476
			c0.911,0.214,0.055,2.195,0.899,2.476c1.168-0.183,1.517-1.185,1.801-2.25c3.354-2.72,5.974-6.176,9.899-8.325
			C427.965,436.636,422.778,431.405,415.025,429.325z M373.85,433.6c-4.278-0.078-7.938,0.462-10.574,2.025
			c1.56,3.646,4.89,7.686,6.3,12.15c0.383,1.213,0.075,2.608,1.35,3.375c1.329,0.278,0.672-1.429,1.575-1.575
			c0.19,0.484,0.554,0.796,1.35,0.675c0.796-0.18,0.637-1.313,1.351-1.575c0.937,0.188,0.434,1.815,1.8,1.575
			c1.098-2.277,3.696-3.054,4.5-5.625C380.014,439.887,377.664,436.011,373.85,433.6z M70.775,443.05
			c-2.615-2.737-5.782-6.147-9.45-6.524c-4.673-0.481-7.514,3.204-11.925,4.05c-3.092,3.006-7.598,6.922-6.75,12.375
			c0.808,0.132,1.088-0.262,1.575-0.45c0.535,0.44,0.724,1.226,1.8,1.125c0.565-0.561,0.279-1.972,1.35-2.025
			c0.735,0.54,0.357,2.193,1.8,2.025c0.68-0.596,0.584-1.966,1.575-2.25c1.014,0.561,0.354,2.796,2.025,2.7
			c0.884-0.316,0.565-1.835,1.575-2.025c0.628,0.497,0.483,1.767,1.8,1.575c1.06-0.666,0.787-2.663,2.25-2.925
			c-0.069,1.645,0.132,3.018,1.35,3.375c1.22-0.881,0.661-3.54,2.25-4.05c0.812,1.213,0.544,3.505,1.35,4.725
			c0.635-0.115,0.956-0.544,1.575-0.675c0.008-0.817-0.126-1.776,0.45-2.025c1.202,0.598,0.364,3.235,2.25,3.15
			c1.139-0.286,0.212-2.639,1.575-2.7c0.295,0.98,0.398,2.152,0.9,2.925c0.593,0.269,0.58-1.082,0.675,0
			c1.04,0.064,0.311-1.64,1.35-1.575c1.223,1.124,1.817,4.004,4.275,3.15C75.547,452.019,74.585,447.038,70.775,443.05z
			 M270.8,438.55c-3.095-1.422-9.336-0.679-10.575,1.575c0.479,8.446,4.556,13.294,6.3,20.475c1.107,0.019,0.805,1.445,1.8,1.575
			c2.131-4.693,4.995-8.655,9.225-11.25C277.462,446.664,274.61,440.301,270.8,438.55z M520.775,439.675
			c-1.422,6.369-1.578,14.438,4.725,15.3c2.497,0.342,5.467-1.177,8.325-1.125c2.664-2.061,5.406-4.044,9-5.175
			C535.735,445.414,528.198,442.602,520.775,439.675z M457.775,452.95c-1.129-1.024-1.848-2.579-2.926-3.375
			c-2.089-1.543-4.427-2.206-6.975-3.15c-1.216-0.45-2.041-1.185-2.925-1.35c-3.194-0.597-5.629-0.896-8.101-0.226
			c-5.394,1.464-12.156,6.173-15.75,11.025c-1.611,2.176-3.572,5.106-2.699,7.875c1.777,0.128,1.634-1.666,2.925-2.025
			c1.024,0.775,1.51,2.09,2.925,2.476c0.902-0.822,0.652-2.798,1.8-3.375c0.854,0.722,0.136,3.015,1.8,2.925
			c1.063-1.038,1.037-3.163,2.25-4.05c1.05,1.275-0.359,5.01,1.801,5.175c1.457-1.468,1.411-4.438,3.149-5.625
			c1.067,1.407-0.481,5.432,2.025,5.4c1.29-1.261,0.952-4.147,2.925-4.726c0.419,2.281-0.098,5.498,1.8,6.3
			c1.09-0.785,0.676-3.074,2.25-3.375c0.546,1.029,0.33,2.82,1.8,2.926c1.115-1.586,1.29-4.111,3.15-4.95
			c0.784,1.316-0.348,4.548,1.8,4.5c1.149-1.176,1.263-3.388,2.25-4.726c1.521,1.329,0.303,5.397,2.7,5.851
			c0.944-0.781,0.331-3.119,1.35-3.825c1.592,1.259,0.748,4.952,3.15,5.4c1.03-0.62-0.14-3.439,0.9-4.051
			c1.743,0.356,1.557,2.643,3.6,2.7C465.572,460.598,461.146,456.01,457.775,452.95z M402.2,462.85
			c0.229-1.104-1.021-4.775-2.025-7.425c-1.563-4.127-4.181-8.249-6.975-10.125c-7.166-1.463-11.868,1.964-14.851,6.075
			c-1.955,2.696-4.02,6.97-4.725,9.9c-0.513,2.133-1.209,4.697-0.225,6.524c2.21-0.34,1.703-3.396,3.6-4.05
			c0.471,1.404,0.075,3.675,1.8,3.825c1.281-0.895,1.197-3.153,2.7-3.825c0.618,1.106,0.565,2.885,2.025,3.15
			c1.31-0.865,1.141-3.209,2.699-3.825c0.818,0.832,0.604,2.697,1.801,3.149c1.854-0.845,1.522-3.877,3.149-4.949
			c1.525,0.799,0.992,3.657,3.15,3.824c0.71-0.864,0.015-3.135,1.125-3.6c1.035,0.464,0.922,2.078,2.475,2.025
			c0.805-0.171,0.153-1.798,1.125-1.801C399.285,463.036,401.676,465.374,402.2,462.85z M172.925,467.35
			c-2.33-2.131-4.206-5.036-6.075-7.199c-5.038-5.83-9.505-8.599-18.225-10.575c-2.228-0.505-5.122-1.096-7.2-1.351
			c-7.715-0.944-13.87,1.708-18.9,4.5c-6.624,3.678-11.874,12.179-14.625,19.125c2.802,0.978,3.357-2.174,5.175-2.925
			c0.513,0.612,0.839,1.411,1.8,1.575c1.008-0.867,1.237-2.513,2.7-2.925c0.765,0.585,0.525,2.174,1.8,2.25
			c0.914-0.286,0.757-1.644,1.575-2.025c0.627,0.348,0.747,1.203,1.35,1.575c1.32-0.104,1.039-1.812,2.25-2.025
			c0.687,0.289,0.602,1.349,1.575,1.351c1.053-0.521,0.938-2.212,2.25-2.476c0.784,0.491,0.723,1.827,1.575,2.25
			c1.182,0.207,0.921-1.028,1.8-1.125c0.777,0.498,0.863,1.687,2.025,1.801c0.599-0.526,0.846-1.404,1.8-1.575
			c0.316,0.809,0.645,1.604,1.575,1.8c1.207,0.157,0.986-1.114,2.025-1.125c0.793,0.707,0.883,2.117,2.475,2.025
			c0.934-0.492,0.87-1.98,2.025-2.25c0.721,0.629,0.882,1.817,2.025,2.024c1.09-0.109,1.088-1.312,2.025-1.575
			c0.752,0.823,1.022,2.129,2.025,2.7c1.406-0.169,1.12-2.03,2.475-2.25c0.902,0.447,1.167,1.533,2.025,2.025
			c1.386,0.111,1.089-1.462,2.475-1.351c0.565,0.41,0.58,1.37,1.575,1.351c1.014-0.037,0.708-1.393,1.8-1.351
			c0.513,0.612,0.839,1.411,1.8,1.575c0.776-0.273,0.752-1.348,2.025-1.125c0.713,0.712,1.353,1.498,2.475,1.8
			c0.515-0.235,0.797-0.702,1.575-0.675c0.286,1.792,1.684,1.541,2.925,0.9c0.64,1.01,1.148,2.152,3.15,1.8
			C175.324,471.625,173.075,469.611,172.925,467.35z M547.1,450.475c-0.012,0.288-0.288,0.312-0.225,0.676
			c0.884,4.489,4.554,12.255,10.125,13.05c4.111,0.586,9.313-1.426,9.225-6.075C560.196,455.377,553.192,452.41,547.1,450.475z
			 M287,456.55c1.41-1.204,4.292-1.943,3.15-4.05c-0.692-0.583-1.571-0.979-2.025-1.8c-1.496-0.014-5.295-0.544-6.525,0.225
			c-4.818,3.014-12.549,7.735-11.25,14.4c1.27,0.295,1.058-0.893,2.025-0.9c0.253,0.422,0.872,0.479,1.125,0.9
			c0.971-0.004,0.829-1.121,1.8-1.125c0.594,1.356,2.193,0.854,2.925,0c0.695,0.205,0.606,1.193,1.575,1.125
			C282.336,462.696,284.102,459.024,287,456.55z M544.625,451.6c-2.38-2.341-5.091,0.738-4.725,3.601
			c0.233,1.829,1.688,3.862,4.274,3.6C546.011,457.392,546.227,453.176,544.625,451.6z M325.7,459.7
			c-1.245-1.563-3.082-3.292-4.726-4.726c-1.719-1.5-4.226-3.04-6.074-3.6c-8.417-2.547-19.142,1.274-24.075,3.6
			c-3.482,2.818-5.583,7.018-8.775,10.125c-0.066,2.636-3.373,5.543-1.125,7.65c1.338-0.537,1.797-1.953,3.375-2.25
			c1.039,0.011,0.818,1.282,2.025,1.125c0.902-0.372,1.034-1.516,2.025-1.8c0.825,0.3,0.479,1.771,1.8,1.575
			c1.071-0.354,0.971-1.879,2.25-2.025c0.98,0.927,1.42,2.094,2.7,1.8c1.305-0.299,0.658-2.07,2.025-2.475
			c1.055,0.819,1.183,2.567,3.15,2.475c0.883-0.392,0.743-1.807,2.025-1.8c0.541,1.538,0.956,2.669,3.15,2.925
			c0.584-0.54,0.878-1.371,1.575-1.8c-0.012,1.344,1.374,2.298,2.25,2.025c1.219-0.712,0.32-2.197,1.8-2.7
			c0.952,1.223,0.628,3.722,3.149,3.375c0.874-0.627,0.836-2.164,2.025-2.476c0.807,1.271,0.551,3.074,2.475,3.601
			c1.249-0.102,1.002-1.699,2.25-1.8c0.678,0.897,0.457,2.693,2.476,2.25c0.813-0.611,0.975-1.876,1.8-2.476
			c0.727,2.498,3.586,3.27,4.275,0.226c1.171,0.928,0.826,3.373,2.925,3.375C333.14,469.897,329.306,464.225,325.7,459.7z
			 M352.475,464.425c-4.578-8.225-16.731-15.893-26.1-9.45c-0.776,2.704,2.058,3.4,2.25,5.851c3.637,1.987,3.8,7.45,6.75,10.125
			c0.821-0.379,0.52-1.881,1.575-2.025c0.729,0.695,1.157,1.692,2.25,2.025c0.745-0.53,0.634-1.916,1.575-2.25
			c0.501,0.849,0.723,1.977,2.024,2.024c0.8-0.325,0.6-1.649,1.575-1.8c1.083,0.191,0.706,1.845,1.8,2.025
			c1.45,0.25,0.912-1.488,1.575-2.025c1.696,0.457,0.536,2.885,2.7,3.15c0.687-0.438,0.625-1.625,1.125-2.25
			c1.07-0.012,1.207,1.827,2.25,1.125C354.167,468.772,353.319,465.942,352.475,464.425z M571.85,466.45
			c2.465,1.232,4.866,0.279,7.426,0.899c1.722,0.418,4.355,2.176,6.074,2.7c0.881,0.269,1.818,0.161,2.7,0.45
			c0.798,0.261,1.504,1.117,2.25,1.35c1.165,0.363,3.709,0.798,4.726,0.676c1.258-0.151,1.938-1.039,2.925-1.801
			c-9.778-3.872-19.382-7.918-29.25-11.699C569.317,461.933,570.654,464.121,571.85,466.45z M241.55,471.4
			c-1.147-0.697-2.237-1.523-3.375-2.025c-6.01-2.651-11.694-2.064-17.775-0.225c-1.57,1.354-3.208,2.642-5.625,3.149
			c-0.329,1.396-1.705,1.745-1.8,3.375c10.671,2.035,22.75,0.899,34.2,1.125C246.504,473.65,244.034,472.909,241.55,471.4z"/>
		<path fill-rule="evenodd" clip-rule="evenodd" fill="#0106FF" d="M128.375,313c8.4,0,16.8,0,25.2,0
			c-0.31,3.768,2.152,7.095,0.675,9.9c-0.956,1.816-5.357,3.269-7.875,2.7c-3.315-0.75-2.616-5.1-5.625-6.75
			c-1.736-0.953-4.396-0.911-6.075-0.675c-1.602,0.225-2.366,1.476-3.825,1.8c-1.678,0.373-2.812-0.178-4.725-0.675
			C126.185,316.509,127.498,314.973,128.375,313z"/>
		<path fill-rule="evenodd" clip-rule="evenodd" fill="#0106FF" d="M156.95,313c3.225,0,6.45,0,9.675,0
			c2.307,3.415-1.137,6.405-4.725,6.075C159.077,318.815,156.789,315.589,156.95,313z"/>
		<path fill-rule="evenodd" clip-rule="evenodd" fill="#0106FF" d="M170.9,313c8.25,0,16.5,0,24.75,0
			c-1.615,6.777-14.766,6.76-21.6,3.825C172.371,316.104,170.713,314.85,170.9,313z"/>
		<path fill-rule="evenodd" clip-rule="evenodd" fill="#0106FF" d="M198.8,313c2.1,0,4.2,0,6.3,0
			c4.515,2.084,9.36,3.84,14.175,5.625c-1.514,1.871-2.606,3.492-4.275,5.85c-1.061,1.499-2.735,5.549-4.275,6.075
			c-3.255,1.112-9.55-1.167-10.8-2.25c-0.897-0.777-2.56-6.064-2.7-7.875C196.995,317.438,198.518,315.071,198.8,313z"/>
		<path fill-rule="evenodd" clip-rule="evenodd" fill="#FE0000" d="M179.225,318.625c2.507,2.899,0.072,6.331-1.575,8.775
			c-2.028,0.153-3.57-0.18-4.95-0.675C169.189,322.25,174.44,317.51,179.225,318.625z"/>
		<path fill-rule="evenodd" clip-rule="evenodd" fill="#FE0000" d="M236.6,325.825c-2.776,7.848-5.165,17.117-17.1,15.075
			c-3.403-1.772-5.605-4.745-8.1-7.425c2.167-5.634,5.976-9.625,9.675-13.725C226.415,321.61,231.44,323.785,236.6,325.825z"/>
		<path fill-rule="evenodd" clip-rule="evenodd" fill="#0106FF" d="M269,338.875c-1.374,5.451-2.174,11.476-4.5,15.975
			c-3.802-0.131-8.391-0.959-11.025-2.475c-0.885-0.509-1.235-1.604-2.025-2.25c-2.885-2.359-6.75-2.749-9.45-4.5
			c-1.868-1.211-5.165-5.849-5.4-7.875c-0.429-3.702,2.401-7.418,3.825-10.35C250.046,331.129,259.646,334.878,269,338.875z"/>
		<path fill-rule="evenodd" clip-rule="evenodd" fill="#FE0000" d="M230.75,406.6c-4.536-0.846-10.361,2.213-13.5,4.5
			c-0.989,0.721-2.1,2.227-2.925,2.25c-1.559,0.045-2.883-2.738-3.825-3.824c-1.405-1.62-3.61-3.275-5.85-5.176
			c-3.082-2.613-6.793-4.455-11.475-5.399c-0.262-0.784-0.815-1.705-1.35-2.476c-1.562-2.252-4.646-7.005-7.425-7.2
			c-0.601-0.042-2.371,0.551-3.825,0.9c-1.624,0.39-3.275,0.525-4.5,0.9c-1.9,0.582-2.61,2.337-4.5,2.475
			c-2.025-3.746-0.396-8.797-2.025-12.375c-1.292-2.838-4.98-4.633-6.975-6.975c-1.488-3.48-2.531-6.762-4.05-10.8
			c-1.608-4.273-1.417-5.561,0.9-9.45c2.493-4.184,5.031-8.085,8.55-11.025c2.262-1.024,4.383-2.317,6.525-3.825
			c3.191-2.246,5.196-6.002,9.45-7.2c1.86-0.524,6.188-0.575,8.325,0.45c0.875,0.42,2.712,2.385,4.05,3.825
			c2.675,2.88,4.31,5.287,6.525,8.775c1.041,1.64,2.388,3.11,3.15,4.5c0.926,1.687,1.399,4.169,2.25,6.3
			c0.848,2.122,2.011,4.184,2.475,5.85c1.103,3.959,1.359,8.003,2.925,11.475c1.24,2.75,3.388,5.186,5.175,7.65
			c3.676,5.066,5.792,10.778,9,16.65C229.301,400.077,231.302,403.088,230.75,406.6z"/>
		<path fill-rule="evenodd" clip-rule="evenodd" fill="#FE0000" d="M270.575,339.55c8.407,2.992,16.391,6.409,24.525,9.675
			c-1.918,2.882-2.409,7.191-3.375,11.025c-2.37-1.047-3.844,1.606-5.4,2.025c-2.782,0.748-8.631-0.168-10.35-1.125
			c-1.042-0.58-2.201-2.732-3.375-4.275c-0.977-1.284-2.608-3.192-2.925-4.5c-0.145-0.599,0.111-1.577,0-2.475
			c-0.139-1.126-0.876-2.214-0.9-2.925C268.681,344.17,271.033,342.521,270.575,339.55z"/>
		<path fill-rule="evenodd" clip-rule="evenodd" fill="#FE0000" d="M325.475,361.375c-1.739,3.211-2.569,7.33-3.6,11.25
			c-1.88,1.429-4.502,2.022-6.975,2.7c-2.049,0.562-3.504,1.795-6.075,0.9c-2.782-0.969-8.302-6.803-9.45-9.9
			c-0.822-2.217-0.667-4.62-2.25-6.075c-0.98-0.507-2.255-0.374-3.15-0.45c1.023-3.251,1.416-7.134,2.925-9.9
			C306.378,353.772,316.101,357.399,325.475,361.375z"/>
		<path fill-rule="evenodd" clip-rule="evenodd" fill="#FE0000" d="M238.175,410.425c-1.662-0.587-2.467-2.032-4.275-2.475
			c-1.447-8.446-5.5-13.789-8.55-20.7c-0.481-1.091-1.361-2.677-2.25-4.05c-1.489-2.3-4.245-4.787-3.825-7.65
			c0.298-2.03,3.692-4.009,5.625-5.4c3.782-2.721,9.916-7.343,16.425-4.5c5.312,2.32,9.504,8.926,12.15,15.075
			c0.732,1.702,2.228,5.593,1.8,7.2c-0.378,1.418-3.151,2.042-4.95,3.15c-1.443,0.889-3.157,1.959-3.825,2.7
			c-0.598,0.663-0.819,1.992-1.575,3.15c-0.603,0.923-1.701,1.593-2.25,2.476C240.241,403.315,240.402,406.43,238.175,410.425z"/>
		<path fill-rule="evenodd" clip-rule="evenodd" fill="#0106FF" d="M390.5,387.25c-3.756,3.894-6.252,9.048-10.35,12.6
			c-7.36-1.489-12.792-4.908-17.775-8.774c-0.428-0.563,0.187-0.884-0.225-1.575c-1.86-0.315-2.591-1.76-3.601-2.925
			c1.014-3.598,1.511-7.74,2.025-11.25C370.614,379.236,380.515,383.286,390.5,387.25z"/>
		<path fill-rule="evenodd" clip-rule="evenodd" fill="#0106FF" d="M293.075,450.025c-3.216,1.026-4.942-2.718-8.325-2.476
			c-1.938,0.14-2.47,1.374-4.725,1.575c-1.792-5.333-4.421-9.828-8.55-12.825c-4.011-1.521-8.783,0.004-11.475,1.125
			c-4.424-8.776-9.545-16.854-15.75-23.85c-1.695-0.63-2.737-1.913-3.6-3.375c2.27-6.443,4.62-12.437,10.125-16.425
			c1.644-1.19,3.606-1.627,4.95-3.15c0.935-1.059,1.225-2.491,2.025-3.6c1.901-2.635,5.539-5.171,8.325-7.2
			c0.131-0.096,0.819-0.212,0.9-0.225c6.066-1.008,10.713,5.12,12.6,10.8c0.175,1.174,1.853,0.848,1.35,2.7
			c6.003,6.442,10.028,16.61,11.475,27.9c0.4,3.12,0.275,6.428,0.675,9.9C293.794,437.142,295.451,443.613,293.075,450.025z"/>
		<path fill-rule="evenodd" clip-rule="evenodd" fill="#FE0000" d="M413.45,396.7c-1.331,5.119-2.894,10.007-4.275,15.075
			c-1.526-1.13-2.624-1.126-5.625-1.575c-1.241-0.186-2.868-1.602-5.175-2.476c-1.628-0.616-3.365-0.716-4.5-1.35
			c-1.009-0.563-1.675-1.585-2.475-2.025c-2.968-1.632-6.821-1.756-5.625-7.199c2.264-2.912,4.458-5.892,6.3-9.226
			C399.2,390.85,406.699,393.4,413.45,396.7z"/>
		<path fill-rule="evenodd" clip-rule="evenodd" fill="#0106FF" d="M355.175,394.675c-3.856-0.418-6.776-1.773-8.774-4.05
			c1.854-0.622,3.703-1.246,6.074-1.35C353.675,390.644,356.122,391.903,355.175,394.675z"/>
		<path fill-rule="evenodd" clip-rule="evenodd" fill="#0106FF" d="M210.5,414.25c-0.032,1.093-1.822,0.428-2.475,0.9
			c-4.835,2.664-7.384,7.616-9.675,12.824c-1.83,0.268-3.247-1.274-5.4-1.8c-5.893-1.438-13.339-0.168-18.225,0.9
			c-1.325-6.381-1.458-13.515-2.25-20.7c-0.467-4.24-1.686-7.438,1.125-9.675c0.822-0.654,2.333-0.881,3.6-1.575
			c2.747-1.505,4.45-3.581,7.65-2.925c1.56,0.319,4.456,3.087,5.4,4.274c1.667,2.098,1.933,4.364,3.825,6.075
			c4.151,0.866,7.875,2.816,11.025,5.175C207.308,409.378,210.479,411.451,210.5,414.25z"/>
		<path fill-rule="evenodd" clip-rule="evenodd" fill="#FE0000" d="M443.15,408.85c-3.182,4.244-3.775,11.075-6.525,15.75
			c-10.697-1.602-15.515-9.085-24.975-11.925c1.833-4.588,2.81-10.56,4.05-15.075c0.2-0.138,0.402-0.271,0.45,0
			c6.878,2.536,13.759,5.346,20.699,8.101C439.029,406.564,441.489,407.176,443.15,408.85z"/>
		<path fill-rule="evenodd" clip-rule="evenodd" fill="#0106FF" d="M465.875,417.4c0.885,3.806-1.42,7.156-2.25,9.899
			c-0.548,1.813-0.389,3.19-1.35,4.275c-2.205,0.087-4.686-0.022-6.525-1.351c-1.261,0.322-2.403,0.611-3.825,0
			c-0.644-0.276-0.938-0.938-1.575-1.125c-0.537-0.156-0.664,0.244-1.125,0c-2.985-1.584-6.465-4.524-8.55-6.524
			c0.202-5.424,3.61-7.64,4.726-12.15c0.468-0.132,0.727-0.473,1.125-0.675C453.053,412.223,459.434,414.841,465.875,417.4z"/>
		<path fill-rule="evenodd" clip-rule="evenodd" fill="#0106FF" d="M267.425,472.975c-0.83,0.666-1.079-0.753-1.575-1.125
			c-1.056,0.145-1.064,1.336-2.25,1.351c-1.217-0.283-1.326-1.675-2.025-2.476c-1.068,0.433-0.649,2.352-2.025,2.476
			c-0.95-0.175-1.887-1.309-1.575-2.025c-1.273,0.302-1.463,1.688-2.475,2.25c-1.052-0.148-1.313-1.087-2.025-1.575
			c-1.041,0.01-0.68,1.421-1.575,1.575c-0.794,0.436-1.006-0.105-1.8-0.225c-0.759,0.141-0.552,1.248-1.35,1.35
			c-1.605-0.795-2.733-2.066-3.6-3.6c-4.888-2.379-9.39-7.318-16.65-5.851c-0.727-0.398-1.411-0.839-2.025-1.35
			c-3.984-15.517-13.97-25.03-24.525-33.975c0.332-3.606,1.835-6.813,4.05-9.676c1.068-1.381,3.531-2.981,4.95-3.149
			c0.868-0.103,1.672,0.455,2.475,0.45c1.221-0.009,2.852-0.692,3.825-1.125c2.901-1.291,5.403-4.088,7.875-4.95
			c4.978-1.737,10.907,2.009,15.525,4.274c5.626,2.762,10.606,12.774,13.725,18.226c1.183,2.067,2.764,3.838,3.6,6.075
			c1.729,4.625,2.967,9.281,4.725,13.725c1.905,4.817,2.907,9.541,4.05,14.175C267.173,469.516,268.777,471.033,267.425,472.975z"/>
		<path fill-rule="evenodd" clip-rule="evenodd" fill="#FE0000" d="M82.025,430.9c-0.995,0.02-1.01-0.94-1.575-1.351
			c-1.187-0.211-0.93,1.021-1.575,1.351c-1.276,0.076-1.169-1.231-2.25-1.351c-0.927-0.177-0.423,1.077-1.35,0.9
			c-2.07-0.884-4.023-1.115-6.3-0.675c-0.741-5.256,2.433-9.596,5.175-13.051c1.461-1.841,3.487-3.197,4.95-4.725
			c4.097-1.923,11.084,0.509,12.15,3.825c0.842,2.621-1.608,2.985-2.925,4.725C86.039,423.571,84.196,428.411,82.025,430.9z"/>
		<path fill-rule="evenodd" clip-rule="evenodd" fill="#FE0000" d="M310.175,447.55c-3.255,0.31-8.009,0.564-11.475,1.351
			c-1.132,0.256-2.3,1.521-3.15,0.899c-0.632-4.484,0.569-8.634,0.225-13.05c-0.154-1.976-0.986-3.642-1.35-5.625
			c-0.96-5.232-0.356-10.729-0.45-16.425c8.355-3.391,16.226,2.769,20.025,8.325c1.637,2.394,3.435,6.314,3.375,8.55
			c-0.082,3.071-3.164,4.578-2.475,7.425C311.662,440.187,312.24,445.19,310.175,447.55z"/>
		<path fill-rule="evenodd" clip-rule="evenodd" fill="#FE0000" d="M26.675,421.225c-1.611,1.989-4.451,2.749-5.175,5.625
			c-5.743,0.253-10.916,0.684-12.6,5.4c-1.265-0.649-2.196-1.197-3.825-0.45c-0.459-0.291-0.569-0.931-1.125-1.125
			c-0.807-0.057-0.825,0.676-1.575,0.675c-0.971-0.004-0.829-1.12-1.8-1.125c-1.567,1.65-2.652-0.639-4.5-0.675
			c-0.187-4.812,3.024-10.699,6.3-13.05C10.747,410.492,21.586,415.852,26.675,421.225z"/>
		<path fill-rule="evenodd" clip-rule="evenodd" fill="#0106FF" d="M468.125,418.3c7.392,3.034,14.884,5.967,22.275,9
			c-1.46,3.269-2.977,6.792-4.95,9.9c-3.221,5.072-9.345,4.614-15.3,1.575C466.773,433.624,468.213,425.366,468.125,418.3z"/>
		<path fill-rule="evenodd" clip-rule="evenodd" fill="#0106FF" d="M55.475,434.95c-6.563,1.912-10.994,5.956-14.175,11.25
			c-1.3-0.8-0.584-3.615-1.8-4.5c-1.687,0.488-1.472,2.878-2.7,3.825c-2.001-0.324-1.747-2.903-2.7-4.275
			c-1.242,1.009-0.83,3.67-2.025,4.725c-2.365-0.335-1.939-3.46-2.925-5.175c-1.561,0.314-0.799,2.951-2.025,3.601
			c-2.047-0.128-1.583-2.767-2.475-4.051c-1.459,0.341-0.625,2.976-1.8,3.601c-2.031-0.069-1.874-2.326-2.475-3.825
			c-1.213,0.287-0.682,2.318-1.575,2.925c-2.066-0.408-1.494-3.456-2.7-4.725c-1.11,0.539-1.274,2.025-2.25,2.7
			c-1.525,0.175-1.339-1.361-2.7-1.351c0.506-5.422,2.24-9.574,6.75-10.125c1.408-0.172,3.347,0.88,4.95,0.45
			c1.362-0.365,2.231-2.795,3.15-3.825c1.08-1.211,2.493-1.918,3.15-3.375c2.145-0.937,3.3-2.571,5.4-3.149
			c6.25-1.722,12.119,3.17,16.2,5.625C52.532,428.177,55.588,430.891,55.475,434.95z"/>
		<path fill-rule="evenodd" clip-rule="evenodd" fill="#FE0000" d="M336.725,433.15c-3.95,4.824-6.896,10.652-8.324,18
			c-2.212,0.563-3.13,2.42-4.726,3.6c-2.925-2.741-6.095-5.089-10.8-6.525c0.42-6.195,3.511-10.828,6.75-15.3
			c2.945-4.065,6.419-9.154,13.05-7.425C335.431,426.219,342.438,431.162,336.725,433.15z"/>
		<path fill-rule="evenodd" clip-rule="evenodd" fill="#0106FF" d="M519.425,439.225c-1.461,5.646-2.686,10.921-9.225,11.7
			c-2.312,0.275-5.345-0.17-7.425-1.125c-0.784-0.359-1.433-1.379-2.476-1.575c-1.292-0.242-2.728,0.382-3.825,0.226
			c-4.102-0.585-7.091-5.442-7.649-8.775c-0.713-4.249,1.527-7.628,2.7-11.925C500.786,431.614,510.421,435.104,519.425,439.225z"/>
		<path fill-rule="evenodd" clip-rule="evenodd" fill="#0106FF" d="M368.45,459.7c-1.141-0.284-1.296-1.555-1.8-2.476
			c-1.372,0.203-1.083,2.067-1.801,2.926c-2.696,0.296-1.908-2.892-3.375-3.825c-1.043,0.307-0.201,2.499-1.35,2.7
			c-1.561-0.09-1.04-2.261-2.475-2.476c-0.971,0.305-0.406,2.145-0.9,2.925c-1.936-0.09-1.888-2.162-2.925-3.149
			c-1.114,0.011-0.582,1.668-1.125,2.25c-4.083-3.59-8.063-8.408-14.4-9c-1.719-1.438-5.628,0.574-6.524-1.8
			c2.032-6.853,4.811-11.783,9.675-15.525c2.938-2.26,7.022-5.104,11.7-2.925c6.837,3.186,14.053,13.963,15.75,21.6
			C369.425,453.285,369.433,457.843,368.45,459.7z"/>
		<path fill-rule="evenodd" clip-rule="evenodd" fill="#FE0000" d="M224.225,466.225c-3.293,0.819-7.482,2.327-9.9-0.675
			c-0.967,0.008-0.755,1.195-2.025,0.9c-1.001-0.049-0.925-1.175-1.575-1.575c-1.232-0.183-1.018,1.082-2.25,0.9
			c-0.59-0.686-1.226-1.325-1.575-2.25c-0.802,0.397-0.756,1.644-1.8,1.8c-0.873-0.402-1.113-1.438-1.575-2.25
			c-1.211,0.214-0.93,1.92-2.25,2.024c-1.335-0.165-1.024-1.975-2.025-2.475c-0.937,0.338-0.905,1.645-1.8,2.025
			c-1.18-0.17-1.158-1.543-2.025-2.025c-1.267,0.233-0.921,2.079-2.475,2.025c-0.647-0.403-0.782-1.318-1.35-1.801
			c-1.509,0.066-1.46,1.69-3.15,1.575c-0.922-0.127-1.004-1.096-1.575-1.575c-1.555-0.055-1.089,1.911-2.7,1.801
			c-0.91-0.44-0.944-1.756-1.35-2.7c-1.346,0.154-1.037,1.963-2.25,2.25c-1.358,0.083-1.497-1.054-2.25-1.575
			c-1.202,0.373-0.887,2.264-2.475,2.25c-0.941-0.184-1.045-1.205-1.8-1.575c-0.676,0.148-0.785,0.865-1.8,0.675
			c-6.312-5.838-10.751-13.548-19.8-16.649c0.037-0.262-0.05-0.4-0.225-0.45c1.544-9.288,10.339-14.129,20.475-16.65
			c7.113-1.77,15.116-2.418,22.275-0.675c2.395,0.583,4.844,2.829,7.425,4.5c1.875,1.215,3.951,2.52,5.175,3.601
			c1.032,0.911,1.992,2.749,3.15,3.824c0.388,0.361,1.077,0.385,1.35,0.676c0.477,0.509,0.724,1.442,1.35,2.024
			c1.534,1.428,4.09,4.649,5.625,7.2C221.982,456.248,224.448,460.142,224.225,466.225z"/>
		<path fill-rule="evenodd" clip-rule="evenodd" fill="#0106FF" d="M430.55,443.5c-3.926,2.149-6.545,5.605-9.899,8.325
			c-0.284,1.065-0.633,2.067-1.801,2.25c-0.845-0.28,0.012-2.262-0.899-2.476c-1.311,0.266-0.94,2.21-2.25,2.476
			c-1.393-0.258-1.099-2.202-1.351-3.601c-1.792,0.533-1.553,3.097-2.699,4.275c-1.601,0.25-1.374-1.326-2.25-1.8
			c-0.96,0.69-0.565,2.734-1.801,3.149c-1.789-0.61-1.701-3.099-2.699-4.5c-1.637,0.314-0.831,3.069-1.801,4.051
			c-1.745,0.028-1.384-1.911-1.8-2.926c-0.82-2.002-1.898-4.146-3.149-6.3c-0.654-1.125-1.726-2.112-1.801-2.925
			c-0.161-1.753,2.285-4.877,3.375-6.525c2.824-4.271,7.785-9.666,15.301-7.649C422.778,431.405,427.965,436.636,430.55,443.5z"/>
		<path fill-rule="evenodd" clip-rule="evenodd" fill="#FE0000" d="M381.5,444.625c-0.804,2.571-3.402,3.348-4.5,5.625
			c-1.366,0.24-0.863-1.387-1.8-1.575c-0.714,0.262-0.555,1.396-1.351,1.575c-0.796,0.121-1.159-0.19-1.35-0.675
			c-0.903,0.146-0.246,1.854-1.575,1.575c-1.274-0.767-0.967-2.162-1.35-3.375c-1.41-4.465-4.74-8.504-6.3-12.15
			c2.636-1.563,6.296-2.104,10.574-2.025C377.664,436.011,380.014,439.887,381.5,444.625z"/>
		<path fill-rule="evenodd" clip-rule="evenodd" fill="#0106FF" d="M76.4,457c-2.458,0.854-3.052-2.026-4.275-3.15
			c-1.04-0.064-0.311,1.64-1.35,1.575c-0.095-1.082-0.082,0.269-0.675,0c-0.502-0.772-0.605-1.944-0.9-2.925
			c-1.363,0.062-0.437,2.414-1.575,2.7c-1.886,0.085-1.048-2.553-2.25-3.15c-0.576,0.249-0.442,1.208-0.45,2.025
			c-0.619,0.131-0.939,0.56-1.575,0.675c-0.806-1.22-0.539-3.512-1.35-4.725c-1.589,0.51-1.03,3.169-2.25,4.05
			c-1.218-0.357-1.419-1.73-1.35-3.375c-1.463,0.262-1.19,2.259-2.25,2.925c-1.316,0.191-1.171-1.078-1.8-1.575
			c-1.01,0.19-0.691,1.709-1.575,2.025c-1.671,0.096-1.011-2.14-2.025-2.7c-0.991,0.284-0.896,1.654-1.575,2.25
			c-1.442,0.168-1.064-1.485-1.8-2.025c-1.071,0.054-0.785,1.465-1.35,2.025c-1.076,0.101-1.265-0.685-1.8-1.125
			c-0.487,0.188-0.768,0.582-1.575,0.45c-0.848-5.453,3.658-9.369,6.75-12.375c4.412-0.846,7.252-4.531,11.925-4.05
			c3.668,0.377,6.834,3.787,9.45,6.524C74.585,447.038,75.547,452.019,76.4,457z"/>
		<path fill-rule="evenodd" clip-rule="evenodd" fill="#FE0000" d="M277.55,450.925c-4.23,2.595-7.094,6.557-9.225,11.25
			c-0.995-0.13-0.693-1.557-1.8-1.575c-1.744-7.181-5.821-12.028-6.3-20.475c1.239-2.254,7.479-2.997,10.575-1.575
			C274.61,440.301,277.462,446.664,277.55,450.925z"/>
		<path fill-rule="evenodd" clip-rule="evenodd" fill="#FE0000" d="M542.825,448.675c-3.594,1.131-6.336,3.114-9,5.175
			c-2.858-0.052-5.828,1.467-8.325,1.125c-6.303-0.861-6.146-8.931-4.725-15.3C528.198,442.602,535.735,445.414,542.825,448.675z"/>
		<path fill-rule="evenodd" clip-rule="evenodd" fill="#0106FF" d="M464.75,466.675c-2.043-0.058-1.856-2.344-3.6-2.7
			c-1.04,0.611,0.13,3.431-0.9,4.051c-2.402-0.448-1.559-4.142-3.15-5.4c-1.019,0.706-0.405,3.044-1.35,3.825
			c-2.397-0.453-1.179-4.521-2.7-5.851c-0.987,1.338-1.101,3.55-2.25,4.726c-2.147,0.048-1.016-3.184-1.8-4.5
			c-1.86,0.839-2.035,3.364-3.15,4.95c-1.47-0.105-1.254-1.896-1.8-2.926c-1.574,0.301-1.16,2.59-2.25,3.375
			c-1.897-0.802-1.381-4.019-1.8-6.3c-1.973,0.578-1.635,3.465-2.925,4.726c-2.507,0.031-0.958-3.993-2.025-5.4
			c-1.738,1.187-1.692,4.157-3.149,5.625c-2.16-0.165-0.751-3.899-1.801-5.175c-1.213,0.887-1.188,3.012-2.25,4.05
			c-1.664,0.09-0.946-2.203-1.8-2.925c-1.147,0.577-0.897,2.553-1.8,3.375c-1.415-0.386-1.9-1.7-2.925-2.476
			c-1.291,0.359-1.147,2.153-2.925,2.025c-0.873-2.769,1.088-5.699,2.699-7.875c3.594-4.853,10.356-9.562,15.75-11.025
			c2.472-0.67,4.906-0.371,8.101,0.226c0.884,0.165,1.709,0.899,2.925,1.35c2.548,0.944,4.886,1.607,6.975,3.15
			c1.078,0.796,1.797,2.351,2.926,3.375C461.146,456.01,465.572,460.598,464.75,466.675z"/>
		<path fill-rule="evenodd" clip-rule="evenodd" fill="#0106FF" d="M399.05,461.725c-0.972,0.003-0.32,1.63-1.125,1.801
			c-1.553,0.053-1.439-1.562-2.475-2.025c-1.11,0.465-0.415,2.735-1.125,3.6c-2.158-0.167-1.625-3.025-3.15-3.824
			c-1.627,1.072-1.295,4.104-3.149,4.949c-1.197-0.452-0.982-2.317-1.801-3.149c-1.559,0.616-1.39,2.96-2.699,3.825
			c-1.46-0.266-1.407-2.044-2.025-3.15c-1.503,0.672-1.419,2.931-2.7,3.825c-1.725-0.15-1.329-2.421-1.8-3.825
			c-1.896,0.654-1.39,3.71-3.6,4.05c-0.984-1.827-0.288-4.392,0.225-6.524c0.705-2.931,2.77-7.204,4.725-9.9
			c2.982-4.111,7.685-7.538,14.851-6.075c2.794,1.876,5.411,5.998,6.975,10.125c1.004,2.649,2.255,6.32,2.025,7.425
			C401.676,465.374,399.285,463.036,399.05,461.725z"/>
		<path fill-rule="evenodd" clip-rule="evenodd" fill="#0106FF" d="M174.05,473.875c-2.002,0.353-2.51-0.79-3.15-1.8
			c-1.241,0.641-2.639,0.892-2.925-0.9c-0.778-0.027-1.061,0.439-1.575,0.675c-1.123-0.302-1.762-1.088-2.475-1.8
			c-1.272-0.223-1.249,0.852-2.025,1.125c-0.961-0.164-1.287-0.963-1.8-1.575c-1.092-0.042-0.787,1.313-1.8,1.351
			c-0.995,0.02-1.01-0.94-1.575-1.351c-1.386-0.111-1.089,1.462-2.475,1.351c-0.858-0.492-1.123-1.578-2.025-2.025
			c-1.355,0.22-1.069,2.081-2.475,2.25c-1.003-0.571-1.272-1.877-2.025-2.7c-0.937,0.264-0.935,1.466-2.025,1.575
			c-1.144-0.207-1.305-1.396-2.025-2.024c-1.155,0.27-1.091,1.758-2.025,2.25c-1.592,0.092-1.682-1.318-2.475-2.025
			c-1.039,0.011-0.818,1.282-2.025,1.125c-0.93-0.195-1.258-0.991-1.575-1.8c-0.954,0.171-1.201,1.049-1.8,1.575
			c-1.162-0.114-1.248-1.303-2.025-1.801c-0.879,0.097-0.618,1.332-1.8,1.125c-0.852-0.423-0.791-1.759-1.575-2.25
			c-1.312,0.264-1.197,1.954-2.25,2.476c-0.973-0.002-0.889-1.062-1.575-1.351c-1.211,0.214-0.93,1.921-2.25,2.025
			c-0.603-0.372-0.722-1.228-1.35-1.575c-0.818,0.382-0.661,1.739-1.575,2.025c-1.274-0.076-1.035-1.665-1.8-2.25
			c-1.463,0.412-1.692,2.058-2.7,2.925c-0.961-0.164-1.287-0.963-1.8-1.575c-1.818,0.751-2.373,3.902-5.175,2.925
			c2.751-6.946,8.001-15.447,14.625-19.125c5.03-2.792,11.185-5.444,18.9-4.5c2.078,0.255,4.973,0.846,7.2,1.351
			c8.72,1.977,13.188,4.745,18.225,10.575c1.869,2.163,3.745,5.068,6.075,7.199C173.075,469.611,175.324,471.625,174.05,473.875z"/>
		<path fill-rule="evenodd" clip-rule="evenodd" fill="#0106FF" d="M566.225,458.125c0.089,4.649-5.113,6.661-9.225,6.075
			c-5.571-0.795-9.241-8.561-10.125-13.05c-0.063-0.364,0.213-0.388,0.225-0.676C553.192,452.41,560.196,455.377,566.225,458.125z"
			/>
		<path fill-rule="evenodd" clip-rule="evenodd" fill="#FE0000" d="M279.8,465.325c-0.968,0.068-0.88-0.92-1.575-1.125
			c-0.732,0.854-2.331,1.356-2.925,0c-0.971,0.004-0.829,1.121-1.8,1.125c-0.253-0.422-0.872-0.479-1.125-0.9
			c-0.967,0.008-0.755,1.195-2.025,0.9c-1.299-6.665,6.432-11.387,11.25-14.4c1.23-0.769,5.029-0.238,6.525-0.225
			c0.454,0.82,1.333,1.217,2.025,1.8c1.143,2.106-1.74,2.846-3.15,4.05C284.102,459.024,282.336,462.696,279.8,465.325z"/>
		<path fill-rule="evenodd" clip-rule="evenodd" fill="#0106FF" d="M544.175,458.8c-2.587,0.263-4.041-1.771-4.274-3.6
			c-0.366-2.862,2.345-5.941,4.725-3.601C546.227,453.176,546.011,457.392,544.175,458.8z"/>
		<path fill-rule="evenodd" clip-rule="evenodd" fill="#0106FF" d="M332.45,475.9c-2.099-0.002-1.754-2.447-2.925-3.375
			c-0.689,3.044-3.549,2.272-4.275-0.226c-0.825,0.6-0.986,1.864-1.8,2.476c-2.019,0.443-1.798-1.353-2.476-2.25
			c-1.248,0.101-1.001,1.698-2.25,1.8c-1.924-0.526-1.668-2.329-2.475-3.601c-1.189,0.312-1.151,1.849-2.025,2.476
			c-2.521,0.347-2.197-2.152-3.149-3.375c-1.479,0.503-0.581,1.988-1.8,2.7c-0.876,0.272-2.262-0.682-2.25-2.025
			c-0.697,0.429-0.991,1.26-1.575,1.8c-2.195-0.256-2.61-1.387-3.15-2.925c-1.282-0.007-1.142,1.408-2.025,1.8
			c-1.967,0.093-2.095-1.655-3.15-2.475c-1.367,0.404-0.72,2.176-2.025,2.475c-1.28,0.294-1.72-0.873-2.7-1.8
			c-1.279,0.146-1.179,1.671-2.25,2.025c-1.321,0.196-0.975-1.275-1.8-1.575c-0.991,0.284-1.123,1.428-2.025,1.8
			c-1.207,0.157-0.986-1.114-2.025-1.125c-1.578,0.297-2.037,1.713-3.375,2.25c-2.248-2.107,1.059-5.015,1.125-7.65
			c3.193-3.107,5.293-7.307,8.775-10.125c4.934-2.325,15.658-6.146,24.075-3.6c1.849,0.56,4.355,2.1,6.074,3.6
			c1.644,1.434,3.48,3.163,4.726,4.726C329.306,464.225,333.14,469.897,332.45,475.9z"/>
		<path fill-rule="evenodd" clip-rule="evenodd" fill="#0106FF" d="M353.825,470.95c-1.043,0.702-1.18-1.137-2.25-1.125
			c-0.5,0.625-0.438,1.812-1.125,2.25c-2.164-0.266-1.004-2.693-2.7-3.15c-0.663,0.537-0.125,2.275-1.575,2.025
			c-1.094-0.181-0.717-1.834-1.8-2.025c-0.976,0.15-0.775,1.475-1.575,1.8c-1.302-0.048-1.523-1.176-2.024-2.024
			c-0.941,0.334-0.83,1.72-1.575,2.25c-1.093-0.333-1.521-1.33-2.25-2.025c-1.056,0.145-0.754,1.646-1.575,2.025
			c-2.95-2.675-3.113-8.138-6.75-10.125c-0.192-2.45-3.026-3.146-2.25-5.851c9.368-6.442,21.521,1.226,26.1,9.45
			C353.319,465.942,354.167,468.772,353.825,470.95z"/>
		<path fill-rule="evenodd" clip-rule="evenodd" fill="#0106FF" d="M568.7,459.025c9.868,3.781,19.472,7.827,29.25,11.699
			c-0.986,0.762-1.667,1.649-2.925,1.801c-1.017,0.122-3.561-0.313-4.726-0.676c-0.746-0.232-1.452-1.089-2.25-1.35
			c-0.882-0.289-1.819-0.182-2.7-0.45c-1.719-0.524-4.353-2.282-6.074-2.7c-2.56-0.62-4.961,0.333-7.426-0.899
			C570.654,464.121,569.317,461.933,568.7,459.025z"/>
		<path fill-rule="evenodd" clip-rule="evenodd" fill="#0106FF" d="M247.175,476.8c-11.45-0.226-23.529,0.91-34.2-1.125
			c0.095-1.63,1.471-1.979,1.8-3.375c2.417-0.508,4.055-1.795,5.625-3.149c6.081-1.84,11.765-2.427,17.775,0.225
			c1.138,0.502,2.228,1.328,3.375,2.025C244.034,472.909,246.504,473.65,247.175,476.8z"/>
		<path fill-rule="evenodd" clip-rule="evenodd" fill="#0106FF" d="M328.175,362.5c10.164,3.711,19.825,7.925,29.925,11.7
			c-1.075,4.065-1.316,9.706-4.05,11.7c-0.387,0.282-1.194-0.712-0.899,0.45c-2.363-0.435-3.937,1.63-5.4,0.675
			c0.549,1-3.034,0.95-4.275,1.575c-0.303-0.522-0.639-1.011-1.125-1.35c-2.951-0.92-5.432-2.881-7.875-4.95
			c-2.864-2.426-6.226-4.307-7.199-8.55c-0.103-0.948-1.064-1.036-1.351-1.8C326.825,368.505,327.57,365.898,328.175,362.5z"/>
		<path fill-rule="evenodd" clip-rule="evenodd" fill="#0106FF" d="M171.575,427.3c-0.29,0.311-0.978,0.223-1.575,0.226
			c-3.288,2.012-6.939,3.087-9.9,5.399c-3.85,3.007-6.062,7.97-8.55,11.7c-2.724,2.419-7.754-1.775-11.025-0.225
			c-0.575-0.101-1.034-0.316-1.35-0.676c-5.38,0.769-9.756,2.491-14.85,3.15c-0.866,0.259-1.271,0.979-2.025,1.35
			c-0.6-0.149-0.824-0.676-1.125-1.125c-1.271,1.229-2.537,1.202-3.375-0.449c-1.051,0.073-0.973,1.276-2.025,1.35
			c-0.958-0.167-0.707-1.543-1.35-2.025c-0.942,0.483-1.184,1.667-2.025,2.25c-1.184-0.016-0.958-1.441-1.35-2.25
			c-1.056-0.081-0.682,1.268-1.8,1.125c-1.257-0.093-0.936-1.765-1.8-2.25c-0.941,0.184-0.653,1.597-1.8,1.575
			c-1.28-0.145-0.521-2.329-1.35-2.925c-1.017,0.183-0.521,1.879-1.8,1.8c-1.676-0.454-0.14-2.727-1.125-3.825
			c-1.405,0.471-1.232,2.519-2.25,3.375c-1.336-0.164-1.251-1.748-1.8-2.699c-1.483,0.091-0.595,2.555-2.025,2.699
			c-1.446-0.804-0.646-3.854-1.575-5.175c-1.58,0.595-1.328,3.022-2.475,4.05c-1.826,0.177-0.866-2.434-2.25-2.699
			c-1.559-0.284-1.141,1.408-2.7,1.125c-0.99-0.835,0.049-2.908-0.45-3.825c-1.328-0.232-1.632,2.384-2.475,3.375
			c-0.675-7.208,4.787-13.425,7.65-18.9c1.075-0.949,1.995-2.055,2.925-3.149c1.597-0.428,2.252-1.798,3.6-2.476
			c3.751-9.899,2.892-24.408,10.35-30.6c3.528-1,6.745-0.63,9,1.575c5.766,5.637,8.092,18.056,10.35,26.325
			c1.976-1.739,0.383-4.183,0-5.85c-0.929-4.044-1.116-7.791-2.25-11.25c-1.291-3.935-3.665-8.782-6.525-11.7
			c-1.235-1.26-3.194-1.588-3.6-3.6c-0.341-1.691,0.464-5.188,1.125-6.975c1.377-3.722,4.377-7.615,6.525-11.925
			c3.036-6.092,5.084-9.88,10.35-13.275c2.859,0.009,4.363-1.336,7.65-0.9c9.357,4.512,15.516,12.501,19.35,22.725
			c0.576,1.535,0.967,3.737,1.8,5.175c0.676,1.167,2.475,1.732,3.375,2.925c0.647,0.856,2.671,4.352,3.375,5.625
			c1.392,2.517,1.466,10.494,1.8,14.625C171.008,409.754,172.006,418.795,171.575,427.3z"/>
	</g>
</g>
</svg>
