<?xml version="1.0" encoding="utf-8"?>
<!-- Generator: Adobe Illustrator 15.0.2, SVG Export Plug-In . SVG Version: 6.00 Build 0)  -->
<!DOCTYPE svg PUBLIC "-//W3C//DTD SVG 1.1//EN" "http://www.w3.org/Graphics/SVG/1.1/DTD/svg11.dtd">
<svg version="1.1" id="Calque_1" xmlns="http://www.w3.org/2000/svg" xmlns:xlink="http://www.w3.org/1999/xlink" x="0px" y="0px"
	 width="612px" height="792px" viewBox="0 0 612 792" enable-background="new 0 0 612 792" xml:space="preserve">
<g>
	<g>
		<polygon fill-rule="evenodd" clip-rule="evenodd" fill="#FFFFFF" points="163.8,207 135.96,231 81,549.721 81,207 163.8,207 		"/>
		<polygon fill-rule="evenodd" clip-rule="evenodd" fill="#FFFFFF" points="448.201,207 531.001,207 531.001,549.721 
			476.041,231.48 448.201,207.24 448.201,207.12 448.201,207 		"/>
		<polygon fill-rule="evenodd" clip-rule="evenodd" fill="#3E291A" points="239.88,213.24 239.929,213.049 240.12,213 
			259.067,225.486 275.88,240.6 281.938,246.985 289.081,251.88 298.777,254.318 309.24,256.44 295.258,256.789 284.041,254.04 
			275.965,247.78 269.16,240.6 254.429,226.872 239.88,213.24 		"/>
		<polygon fill-rule="evenodd" clip-rule="evenodd" fill="#3E291A" points="363.961,213.24 364.336,213.33 364.2,213.48 
			360.344,220.09 355.32,226.68 349.863,232.545 343.561,236.76 332.278,237.22 321.24,234.84 331.839,234.2 341.4,233.16 
			347.439,229.283 352.921,224.04 358.765,218.286 363.961,213.24 		"/>
		<polygon fill-rule="evenodd" clip-rule="evenodd" fill="#3E291A" points="150.12,250.44 153.408,321.847 153,394.44 
			149.914,428.093 145.32,460.921 140.333,493.129 135,524.521 137.927,491.894 141.48,459 145.331,426.219 147.96,393 
			149.189,322.153 150.12,250.44 		"/>
		<polygon fill-rule="evenodd" clip-rule="evenodd" fill="#3E291A" points="474.121,387 478.412,428.481 481.801,470.28 
			486.668,511.055 491.161,551.641 477.36,474.604 474.121,387 		"/>
		<polygon fill-rule="evenodd" clip-rule="evenodd" fill="#3E291A" points="415.081,413.16 415.272,413.209 415.32,413.4 
			414.951,427.107 413.4,439.801 411.162,451.464 406.921,461.4 393.246,475.757 376.921,487.561 383.376,479.828 390.121,471.961 
			397.126,464.4 403.081,456.12 406.691,445.817 409.32,434.761 412.067,423.91 415.081,413.16 		"/>
		<polygon fill-rule="evenodd" clip-rule="evenodd" fill="#3E291A" points="218.521,432.601 218.712,432.649 218.76,432.841 
			225.816,443.889 232.44,455.16 240.264,465.266 248.76,474.601 229.329,457.912 218.521,432.601 		"/>
		<polygon fill-rule="evenodd" clip-rule="evenodd" fill="#3E291A" points="325.561,320.28 295.507,319.552 271.081,313.56 
			252.524,301.386 237.96,285 226.408,265.761 214.92,246.36 200.519,230.091 182.04,217.8 181.665,217.671 182.04,217.56 
			202.56,227.868 218.28,243 230.509,261.599 242.28,280.44 256.764,297.079 274.92,309.48 298.32,316.256 325.561,320.28 		"/>
		<polygon fill-rule="evenodd" clip-rule="evenodd" fill="#3E291A" points="302.521,297 333.744,297.939 362.28,295.08 
			370.955,288.822 378.36,280.2 397.26,253.786 414.841,226.68 414.805,226.959 414.121,228.36 399.93,257.189 382.44,283.32 
			374.757,292.323 365.641,299.16 350.594,302.147 333.48,301.56 317.479,299.63 302.521,297 		"/>
		<polygon fill-rule="evenodd" clip-rule="evenodd" fill="#3E291A" points="168.6,229.8 194.083,269.857 219.24,310.68 
			232.052,330.882 246.6,349.32 263.052,365.726 279.72,381.96 261.279,367.593 243.96,352.2 228.77,334.424 215.64,314.52 
			191.139,273.007 168.6,229.8 		"/>
		<polygon fill-rule="evenodd" clip-rule="evenodd" fill="#3E291A" points="415.561,519.721 432.025,456.785 447.961,391.561 
			451.615,354.628 451.801,314.76 451.398,275.122 450.36,235.8 450.139,234.725 450.36,234.6 453.717,272.71 455.881,312.36 
			456.596,352.873 453.001,391.081 435.903,457.317 415.561,519.721 		"/>
		<polygon fill-rule="evenodd" clip-rule="evenodd" fill="#3E291A" points="423.48,243.72 426.811,283.369 429.24,324.36 
			429.127,338.407 426.36,350.28 421.495,357.85 415.32,364.92 394.711,382.992 370.681,396.36 392.219,380.447 411.24,361.561 
			417.188,354.2 421.561,346.2 423.221,334.513 423.001,321.48 422.284,282.281 423.48,243.72 		"/>
		<polygon fill-rule="evenodd" clip-rule="evenodd" fill="#3E291A" points="189.24,309.24 198.204,335.947 207.72,361.561 
			214.515,372.193 222.36,382.2 229.905,392.511 237,402.841 237.104,402.983 236.76,402.841 227.992,394.158 219.48,384.84 
			211.122,375.485 203.88,365.16 194.713,339.313 189.24,309.24 		"/>
		<polygon fill-rule="evenodd" clip-rule="evenodd" fill="#3E291A" points="172.2,313.32 180.904,391.293 193.32,464.761 
			198.068,482.049 204.36,496.921 214.014,508.615 226.2,518.28 250.109,534.529 275.641,549.721 276.454,550.168 277.32,550.681 
			277.844,551.025 278.041,551.641 249.08,536.877 222.84,520.681 210.542,511.249 200.76,499.801 194.18,485.382 189.24,468.36 
			176.987,394.978 172.2,313.32 		"/>
		<polygon fill-rule="evenodd" clip-rule="evenodd" fill="#3E291A" points="353.881,347.4 346.005,354.984 335.641,361.08 
			320.815,362.048 306.12,359.88 320.245,358.53 333.961,357.24 344.325,352.488 353.881,347.4 		"/>
		<polygon fill-rule="evenodd" clip-rule="evenodd" fill="#3E291A" points="395.641,403.32 382.528,415.535 366.36,425.881 
			344.237,428.847 321,425.4 341.337,424.599 360.36,423 369.655,418.818 378.36,413.4 387.188,408.253 395.641,403.32 		"/>
		<path fill-rule="evenodd" clip-rule="evenodd" fill="#BB2734" d="M163.8,207h284.401v0.12v0.12l27.84,24.24l28.35,164.496
			l26.61,153.745v35.76l-0.035,0.325l-0.205,0.155H81v-36.24l27.581-159.261L135.96,231L163.8,207L163.8,207z M269.16,240.6
			l6.805,7.18l8.076,6.26l11.217,2.749l13.982-0.349l-10.463-2.122l-9.697-2.438l-7.142-4.895l-6.058-6.385l-16.813-15.114
			L240.12,213l-0.191,0.049l-0.048,0.191l14.549,13.632L269.16,240.6L269.16,240.6z M352.921,224.04l-5.481,5.243l-6.039,3.877
			l-9.562,1.04l-10.599,0.64l11.038,2.38l11.282-0.459l6.303-4.215l5.457-5.865l5.023-6.59l3.856-6.61l0.136-0.15l-0.375-0.089
			l-5.196,5.046L352.921,224.04L352.921,224.04z M274.92,309.48l-18.157-12.401L242.28,280.44l-11.771-18.841L218.28,243
			l-15.721-15.132l-20.52-10.308l-0.375,0.111l0.375,0.128l18.479,12.291l14.401,16.27l11.488,19.401L237.96,285l14.564,16.386
			l18.556,12.174l24.427,5.992l30.053,0.729l-27.24-4.024L274.92,309.48L274.92,309.48z M333.48,301.56l17.113,0.587l15.047-2.987
			l9.116-6.837l7.684-9.002l17.489-26.131l14.191-28.83l0.684-1.4l0.036-0.279l-17.581,27.105L378.36,280.2l-7.405,8.622
			l-8.675,6.258l-28.536,2.859L302.521,297l14.959,2.63L333.48,301.56L333.48,301.56z M215.64,314.52l13.129,19.904L243.96,352.2
			l17.319,15.393l18.441,14.368l-16.668-16.235L246.6,349.32l-14.548-18.438L219.24,310.68l-25.157-40.823L168.6,229.8
			l22.539,43.207L215.64,314.52L215.64,314.52z M453.001,391.081l3.595-38.208l-0.715-40.513l-2.164-39.65l-3.356-38.11
			l-0.222,0.125l0.222,1.075l1.038,39.322l0.402,39.638l-0.186,39.868l-3.654,36.933l-15.936,65.225l-16.465,62.936l20.343-62.403
			L453.001,391.081L453.001,391.081z M423.001,321.48l0.22,13.032l-1.66,11.688l-4.372,8l-5.948,7.36l-19.021,18.886l-21.538,15.914
			l24.03-13.369l20.609-18.071l6.175-7.071l4.865-7.569l2.767-11.873l0.113-14.047l-2.43-40.992l-3.33-39.648l-1.196,38.561
			L423.001,321.48L423.001,321.48z M147.96,393l-2.629,33.218L141.48,459l-3.553,32.894L135,524.521l5.333-31.392l4.987-32.208
			l4.594-32.828L153,394.44l0.408-72.593l-3.288-71.407l-0.931,71.713L147.96,393L147.96,393z M203.88,365.16l7.241,10.325
			l8.359,9.355l8.512,9.317l8.768,8.683l0.344,0.143L237,402.841l-7.095-10.33L222.36,382.2l-7.845-10.007l-6.795-10.633
			l-9.517-25.614l-8.963-26.707l5.473,30.072L203.88,365.16L203.88,365.16z M189.24,468.36l4.939,17.021l6.581,14.419l9.782,11.448
			l12.298,9.432l26.239,16.196l28.961,14.764l-0.196-0.615l-0.524-0.345l-0.866-0.513l-0.813-0.447l-25.532-15.191L226.2,518.28
			l-12.186-9.665l-9.654-11.694l-6.292-14.872l-4.748-17.288l-12.417-73.468L172.2,313.32l4.787,81.657L189.24,468.36L189.24,468.36
			z M333.961,357.24l-13.716,1.29l-14.125,1.351l14.695,2.167l14.825-0.968l10.364-6.096l7.876-7.584l-9.556,5.087L333.961,357.24
			L333.961,357.24z M491.161,551.641l-4.493-40.586l-4.867-40.774l-3.389-41.799L474.121,387l3.239,87.604L491.161,551.641
			L491.161,551.641z M378.36,413.4l-8.705,5.418L360.36,423l-19.023,1.599L321,425.4l23.237,3.446l22.123-2.966l16.168-10.346
			l13.112-12.215l-8.453,4.933L378.36,413.4L378.36,413.4z M409.32,434.761l-2.629,11.057l-3.61,10.303l-5.955,8.28l-7.005,7.561
			l-6.745,7.867l-6.455,7.732l16.325-11.804l13.675-14.356l4.241-9.937l2.238-11.663l1.551-12.693l0.369-13.707l-0.048-0.191
			l-0.191-0.049l-3.014,10.75L409.32,434.761L409.32,434.761z M248.76,474.601l-8.497-9.335l-7.823-10.105l-6.625-11.271
			l-7.056-11.048l-0.048-0.191l-0.191-0.049l10.809,25.312L248.76,474.601L248.76,474.601z"/>
	</g>
</g>
</svg>
