<?xml version="1.0" encoding="utf-8"?>
<!-- Generator: Adobe Illustrator 15.0.2, SVG Export Plug-In . SVG Version: 6.00 Build 0)  -->
<!DOCTYPE svg PUBLIC "-//W3C//DTD SVG 1.1//EN" "http://www.w3.org/Graphics/SVG/1.1/DTD/svg11.dtd">
<svg version="1.1" id="Слой_1" xmlns="http://www.w3.org/2000/svg" xmlns:xlink="http://www.w3.org/1999/xlink" x="0px" y="0px"
	 width="450px" height="379px" viewBox="0 0 450 379" enable-background="new 0 0 450 379" xml:space="preserve">
<polygon fill="#BB2733" points="82.895,-0.105 367.105,-0.105 394.877,23.579 450,343.316 450,378.842 0,378.842 0,343.316 
	55.123,23.579 "/>
<g>
	<g>
		<path fill="#3E291C" d="M87.455,22.117c6.239,9.393,12.26,18.91,18.167,28.493c2.99,4.771,5.864,9.608,8.799,14.41l2.188,3.609
			l2.278,3.422l4.679,7.024c3.139,4.67,6.198,9.392,9.271,14.104c3.066,4.717,6.168,9.411,9.174,14.167l9.077,14.229l8.939,14.318
			l-0.302-0.37l9.8,10.027c3.277,3.332,6.484,6.735,9.722,10.106l2.424,2.534l1.158,1.235l1.265,1.215l5.059,4.86
			c3.353,3.262,6.691,6.541,9.99,9.864c-3.713-2.853-7.387-5.75-11.047-8.664l-5.46-4.404l-1.365-1.101l-1.352-1.21l-2.59-2.363
			c-3.447-3.158-6.925-6.283-10.333-9.481l-10.255-9.561l-0.147-0.137l-0.155-0.233l-9.359-14.047l-9.223-14.135
			c-3.094-4.699-6.092-9.46-9.125-14.199c-3.027-4.742-6.067-9.476-9.028-14.261l-4.47-7.159l-2.287-3.676l-2.015-3.708
			c-2.669-4.955-5.4-9.875-8.015-14.86C97.614,42.233,92.425,32.238,87.455,22.117z"/>
	</g>
	<g>
		<path fill="#3E291C" d="M334.208,18.87c-1.286,2.789-2.625,5.547-3.975,8.299c-1.341,2.757-2.74,5.48-4.107,8.223l-4.209,8.165
			c-1.391,2.729-2.861,5.412-4.29,8.119l-0.047,0.09l-0.143,0.184c-2.59,3.336-5.207,6.649-7.845,9.946l-7.964,9.846l-8.049,9.775
			c-2.712,3.234-5.405,6.484-8.146,9.695l-0.69,0.808l-1.011,0.065c-6.069,0.389-12.143,0.721-18.219,1.016l-9.118,0.385
			c-3.039,0.126-6.079,0.253-9.122,0.325l-0.207,0.005l-0.06-0.009l-6.457-0.935l-6.45-1.006c-2.151-0.326-4.297-0.702-6.444-1.062
			c-2.148-0.356-4.292-0.75-6.436-1.153c2.181,0.032,4.36,0.074,6.536,0.153c2.176,0.076,4.354,0.136,6.526,0.245l6.521,0.3
			l6.514,0.372l-0.267-0.004c3.022-0.364,6.05-0.672,9.075-0.981l9.08-0.922c6.056-0.577,12.114-1.115,18.177-1.598l-1.7,0.873
			c2.66-3.277,5.367-6.516,8.056-9.77l8.152-9.689l8.237-9.618c2.764-3.192,5.547-6.367,8.357-9.519l-0.189,0.274
			c1.612-2.602,3.183-5.227,4.833-7.807l4.914-7.761c1.674-2.566,3.315-5.152,5.016-7.703
			C330.751,23.94,332.453,21.39,334.208,18.87z"/>
	</g>
	<g>
		<path fill="#3E291C" d="M369.272,26.662c1.131,11.896,2.052,23.803,2.978,35.71l1.294,17.865l0.32,4.466l0.064,4.567l0.112,8.954
			c0.184,11.938,0.211,23.876,0.296,35.815l0.024,35.813v0.289l-0.069,0.283l-8.734,35.981c-3.018,11.969-5.934,23.961-9.035,35.909
			l-2.302,8.967l-1.18,4.573l-1.404,4.411l-5.677,17.626c-3.855,11.729-7.689,23.466-11.752,35.134
			c2.977-11.991,6.183-23.914,9.366-35.844l4.883-17.862l1.235-4.461l0.985-4.427l2.013-9.036
			c2.654-12.055,5.492-24.066,8.229-36.103l8.529-36.03l-0.069,0.572l0.271-35.813c0.167-11.938,0.277-23.875,0.543-35.812
			l0.174-8.953l0.082-4.385l-0.123-4.476l-0.481-17.905C369.587,50.552,369.325,38.612,369.272,26.662z"/>
	</g>
	<g>
		<path fill="#3E291C" d="M393.299,179.909c0.939,7.227,1.632,14.466,2.341,21.704l0.961,10.861l0.216,2.717l0.256,2.683
			l0.515,5.426c0.686,7.234,1.251,14.478,1.849,21.718c0.505,7.247,1.094,14.488,1.53,21.739l-0.02-0.186
			c0.868,6.51,1.835,13.004,2.622,19.524c0.821,6.517,1.652,13.03,2.367,19.562l2.284,19.55c0.723,6.535,1.436,13.07,1.962,19.637
			c-1.555-6.4-2.924-12.831-4.283-19.264l-1.958-9.661l-0.485-2.416l-0.431-2.455l-0.834-4.856
			c-1.142-6.47-2.167-12.956-3.203-19.441c-1.069-6.479-1.959-12.986-2.947-19.478l-0.011-0.073l-0.009-0.112
			c-0.531-7.245-0.91-14.5-1.373-21.75c-0.37-7.255-0.772-14.509-1.056-21.771l-0.21-5.446l-0.107-2.754l-0.053-2.725l-0.114-10.903
			C393.101,194.465,393.076,187.193,393.299,179.909z"/>
	</g>
	<g>
		<path fill="#3E291C" d="M91.351,105.883c0.838,6.541,1.625,13.085,2.387,19.633l2.185,19.649l2.058,19.66l1.95,19.669
			l-0.045-0.292l6.446,26.994l6.271,27.034c2.115,9.006,4.076,18.047,6.122,27.068c2.049,9.021,4.012,18.061,5.97,27.103
			l-0.792-1.255c7.048,5.653,14.05,11.364,21.041,17.09c7.013,5.697,13.954,11.485,20.919,17.243l-0.174-0.116l16.3,9.659
			l8.121,4.881l8.089,4.94l-8.479-4.234l-8.447-4.294l-16.836-8.69l-0.065-0.034l-0.11-0.082
			c-7.215-5.441-14.454-10.853-21.621-16.354c-7.189-5.474-14.368-10.962-21.5-16.508l-0.604-0.47l-0.188-0.785
			c-2.152-8.997-4.301-17.995-6.363-27.013c-2.065-9.017-4.215-18.015-6.211-27.048l-6.063-27.081l-5.887-27.122l-0.037-0.17
			l-0.008-0.121l-1.301-19.722l-1.194-19.731l-1.067-19.742C91.893,119.058,91.596,112.473,91.351,105.883z"/>
	</g>
	<g>
		<path fill="#3E291C" d="M69.273,42.896c0.756,12.208,1.265,24.42,1.786,36.632l0.683,18.319l0.142,4.58l0.034,4.624l0.067,9.165
			c0.073,12.219,0.059,24.437,0.04,36.655c-0.099,12.217-0.096,24.436-0.279,36.652l-0.002,0.139l-0.013,0.111
			c-1.253,10.733-2.417,21.476-3.76,32.199c-1.298,10.729-2.604,21.455-4.01,32.171l-1.034,8.04l-0.536,4.057l-0.637,4.002
			l-2.568,16.01c-1.762,10.665-3.54,21.329-5.497,31.969c0.939-10.777,2.056-21.53,3.189-32.281l1.775-16.116l0.448-4.028
			l0.363-3.997l0.761-8.07c0.987-10.763,2.074-21.514,3.17-32.265c1.051-10.756,2.28-21.491,3.42-32.237l-0.015,0.25
			c0.049-12.218,0.285-24.434,0.418-36.651c0.214-12.216,0.432-24.433,0.737-36.648l0.241-9.162l0.12-4.539l0.015-4.582
			l0.174-18.331C68.687,67.342,68.856,55.121,69.273,42.896z"/>
	</g>
	<g>
		<path fill="#3E291C" d="M108.234,101.987c0.734,1.897,1.423,3.805,2.092,5.718c0.69,1.908,1.309,3.834,1.96,5.751
			c0.659,1.916,1.244,3.85,1.863,5.776c0.619,1.926,1.225,3.855,1.792,5.794l-0.056-0.181c1.14,2.764,2.322,5.512,3.418,8.291
			c1.123,2.77,2.202,5.556,3.286,8.34c2.148,5.575,4.217,11.18,6.235,16.802l-0.372-0.669c2.404,3.146,4.786,6.31,7.142,9.494
			c2.354,3.186,4.655,6.412,6.948,9.645l1.717,2.427l0.388,0.564l0.443,0.598l0.886,1.195c1.177,1.597,2.375,3.176,3.52,4.8
			c2.319,3.223,4.61,6.469,6.788,9.811c-2.913-2.725-5.711-5.545-8.483-8.388c-1.401-1.409-2.748-2.863-4.117-4.299l-1.023-1.08
			l-0.512-0.54l-0.532-0.6l-1.936-2.256c-2.577-3.012-5.146-6.03-7.662-9.089c-2.514-3.061-5.002-6.142-7.468-9.24l-0.229-0.288
			l-0.143-0.382c-2.093-5.596-4.136-11.209-6.099-16.853c-0.971-2.825-1.948-5.648-2.881-8.488c-0.959-2.83-1.833-5.691-2.749-8.537
			l-0.051-0.159l-0.005-0.022c-0.422-1.976-0.806-3.961-1.176-5.95c-0.37-1.989-0.775-3.969-1.104-5.968
			c-0.338-1.997-0.708-3.986-1.007-5.993C108.79,106.011,108.489,104.004,108.234,101.987z"/>
	</g>
	<g>
		<path fill="#3E291C" d="M342.649,36.403c0.753,7.028,1.217,14.088,1.781,21.098c0.521,7.035,1.036,14.07,1.412,21.108
			c0.191,3.52,0.431,7.037,0.583,10.558l0.119,2.64l0.066,1.266l0.086,1.319l0.346,5.274l0.345,5.274l0.278,5.277l0.557,10.555
			l0.012,0.231l-0.032,0.278c-0.4,3.452-0.84,6.899-1.292,10.345l-1.372,10.335l-0.097,0.726l-0.4,0.571
			c-3.127,4.455-6.36,8.835-9.536,13.255l-0.165,0.23l-0.144,0.137c-2.528,2.433-5.072,4.849-7.65,7.232l-7.702,7.18l-0.171,0.159
			l-0.075,0.049l-10.241,6.719c-3.447,2.192-6.869,4.422-10.342,6.579l-0.079,0.049l0.016-0.008c-3.166,1.583-6.34,3.151-9.549,4.66
			c2.889-2.056,5.813-4.053,8.744-6.035l-0.063,0.042c3.146-2.612,6.343-5.152,9.514-7.729l9.614-7.589l-0.246,0.208l7.23-7.655
			c2.399-2.563,4.833-5.091,7.281-7.604l-0.307,0.367c3.032-4.52,6.006-9.081,9.088-13.566l-0.497,1.296l1.233-10.353
			c0.417-3.45,0.846-6.898,1.313-10.342l-0.021,0.509l-0.423-10.561l-0.212-5.28l-0.145-5.284l-0.145-5.284l-0.036-1.321
			l-0.021-1.375l-0.02-2.643c-0.032-3.523,0.023-7.049,0.03-10.573c0.007-7.049,0.154-14.101,0.306-21.154
			C341.829,50.497,342.155,43.464,342.649,36.403z"/>
	</g>
	<g>
		<path fill="#3E291C" d="M100.441,10.429l5.092,1.889l5.065,1.949l0.045,0.018l0.124,0.088c1.935,1.391,3.844,2.814,5.754,4.234
			l5.728,4.267l5.684,4.321c1.889,1.446,3.801,2.866,5.669,4.337l0.203,0.16l0.214,0.306l7.504,10.699l3.699,5.385l1.844,2.696
			l0.922,1.348l0.461,0.674l0.494,0.768c2.341,3.673,4.661,7.358,6.93,11.074l6.858,11.118l-0.382-0.5
			c2.65,2.75,5.243,5.555,7.867,8.33l7.81,8.385l-0.464-0.396l12.671,9.01l-0.821-0.374c5.684,1.546,11.323,3.264,16.987,4.888
			c2.833,0.808,5.647,1.687,8.469,2.537c2.818,0.864,5.646,1.694,8.456,2.587l-0.268-0.042c3.7,0.435,7.403,0.819,11.101,1.295
			c3.699,0.456,7.396,0.93,11.09,1.472c-3.732,0.09-7.46,0.111-11.187,0.115c-3.728,0.024-7.45-0.044-11.176-0.062l-0.059,0
			l-0.209-0.042c-2.891-0.583-5.766-1.229-8.649-1.839c-2.88-0.625-5.768-1.221-8.637-1.889c-5.74-1.327-11.505-2.559-17.226-3.964
			l-0.406-0.1l-0.416-0.274l-12.978-8.563l-0.227-0.15l-0.237-0.247l-7.942-8.259c-2.626-2.773-5.284-5.516-7.885-8.313l-0.23-0.248
			l-0.151-0.252l-6.725-11.199c-2.258-3.723-4.466-7.477-6.652-11.243l-6.901-10.98L130.5,34.314l0.417,0.465
			c-1.795-1.56-3.547-3.172-5.322-4.757l-5.308-4.774l-5.264-4.828c-1.753-1.611-3.508-3.22-5.236-4.861l0.168,0.106l-4.771-2.588
			L100.441,10.429z"/>
	</g>
	<g>
		<path fill="#3E291C" d="M334.208,205.883c0.073,3.186-0.009,6.347-0.146,9.5c-0.112,3.157-0.331,6.298-0.582,9.433l0.003-0.039
			l-0.049,0.261c-1.673,8.896-3.732,17.691-6.079,26.41l-0.186,0.691l-0.457,0.52c-1.346,1.526-2.708,3.038-4.087,4.536
			c-1.362,1.511-2.771,2.982-4.159,4.473c-1.413,1.467-2.81,2.948-4.249,4.393c-1.425,1.457-2.878,2.89-4.335,4.318l-0.181,0.179
			l0.033-0.026c-2.233,1.751-4.483,3.483-6.794,5.15c-1.141,0.849-2.299,1.68-3.478,2.487c-1.165,0.822-2.356,1.617-3.567,2.391
			c0.867-1.146,1.754-2.27,2.666-3.366c0.898-1.111,1.818-2.199,2.756-3.27c1.846-2.17,3.751-4.276,5.673-6.363l-0.147,0.151
			c1.228-1.63,2.458-3.257,3.718-4.859c1.244-1.615,2.531-3.192,3.803-4.785c1.296-1.569,2.571-3.157,3.894-4.705
			c1.305-1.562,2.626-3.109,3.965-4.643l-0.643,1.21c2.245-8.745,4.777-17.416,7.696-25.985l-0.046,0.221
			c0.7-3.066,1.432-6.129,2.271-9.174C332.314,211.94,333.185,208.9,334.208,205.883z"/>
	</g>
	<g>
		<path fill="#3E291C" d="M137.455,225.363c1.646,2.204,3.122,4.49,4.542,6.804c0.708,1.157,1.419,2.313,2.091,3.489l0.506,0.88
			l0.016,0.027l0.008,0.014c0.012,0.023-0.091-0.173-0.045-0.087l0.004,0.007l0.035,0.053l0.07,0.106l0.139,0.212l0.279,0.424
			l1.102,1.703c2.919,4.554,5.619,9.232,8.179,13.99l-0.349-0.444c2.412,2.417,4.773,4.887,7.048,7.448l0.844,0.971l0.211,0.242
			l0.106,0.121l0.053,0.061l0.026,0.03l0.003,0.004c0.054,0.048-0.069-0.061-0.055-0.048l0.007,0.007l0.014,0.015l0.454,0.455
			c0.611,0.6,1.196,1.231,1.788,1.855c1.189,1.24,2.335,2.532,3.445,3.869c-1.524-0.833-3.012-1.711-4.457-2.642
			c-0.726-0.46-1.458-0.914-2.163-1.399l-0.534-0.358l-0.568-0.443l-1.017-0.787c-2.688-2.125-5.288-4.342-7.838-6.611l-0.175-0.156
			l-0.174-0.288c-2.791-4.627-5.442-9.333-7.874-14.165l-0.904-1.816l-0.492-1.007l-0.375-0.943
			c-0.503-1.257-0.968-2.532-1.436-3.806C139.035,230.599,138.16,228.022,137.455,225.363z"/>
	</g>
	<g>
		<path fill="#3E291C" d="M240.052,218.221c2.778-0.252,5.551-0.41,8.318-0.497c1.385-0.059,2.769-0.102,4.15-0.111l4.147-0.059
			l-0.187-0.002c3.946-0.447,7.897-0.799,11.851-1.104c3.953-0.312,7.91-0.527,11.869-0.721l-1.134,0.33
			c7.023-4.042,14.151-7.903,21.445-11.476l-0.159,0.104c1.19-0.759,2.406-1.484,3.607-2.228c1.201-0.745,2.41-1.478,3.641-2.184
			c2.438-1.438,4.912-2.83,7.451-4.131c-2.016,2.02-4.097,3.948-6.213,5.83c-1.049,0.954-2.116,1.882-3.193,2.797
			c-1.075,0.916-2.138,1.852-3.225,2.753l0.018-0.015l-0.177,0.118c-6.757,4.506-13.68,8.723-20.707,12.759l-0.532,0.306
			l-0.602,0.024c-3.959,0.158-7.92,0.294-11.885,0.334c-3.965,0.046-7.932,0.046-11.903-0.05l-0.209-0.005l0.022,0.003l-4.105-0.586
			c-1.369-0.186-2.736-0.404-4.103-0.639C245.505,219.334,242.775,218.824,240.052,218.221z"/>
	</g>
	<g>
		<path fill="#3E291C" d="M225,152.636c0.985-0.165,1.969-0.291,2.952-0.401c0.984-0.128,1.966-0.194,2.948-0.291
			c0.983-0.103,1.964-0.137,2.945-0.208c0.981-0.069,1.963-0.122,2.943-0.158l-0.147,0.002c5.623-0.792,11.267-1.279,16.922-1.568
			l-0.815,0.234c4.045-2.099,8.146-4.094,12.37-5.863l-0.12,0.074c1.325-0.746,2.659-1.479,4.021-2.171
			c1.355-0.703,2.734-1.371,4.149-1.987c-1.07,1.112-2.176,2.174-3.306,3.2c-1.123,1.037-2.273,2.033-3.434,3.016l0.042-0.036
			l-0.162,0.11c-3.793,2.565-7.708,4.904-11.68,7.139l-0.354,0.199l-0.462,0.035c-5.646,0.427-11.306,0.657-16.984,0.581
			l-0.188-0.002l0.041,0.004c-0.976-0.106-1.95-0.23-2.925-0.37c-0.974-0.143-1.949-0.248-2.922-0.421
			c-0.974-0.167-1.947-0.304-2.92-0.503C226.942,153.068,225.971,152.872,225,152.636z"/>
	</g>
	<g>
		<path fill="#3E291C" d="M158.883,5.883c2.527,1.418,4.995,2.912,7.42,4.461c1.231,0.789,2.411,1.481,3.647,2.398l3.5,2.516
			c4.625,3.404,9.156,6.92,13.613,10.524l0.047,0.038l0.109,0.105c3.91,3.769,7.75,7.609,11.511,11.527l-0.255-0.222
			c3.046,2.383,6.059,4.811,9.03,7.294l-0.837-0.372c2.138,0.519,4.271,1.057,6.398,1.631c2.123,0.595,4.258,1.126,6.37,1.774
			l-0.115-0.016c1.51,0.279,3.021,0.538,4.527,0.858c1.507,0.3,3.014,0.624,4.516,0.988c-1.542,0.11-3.081,0.18-4.617,0.227
			c-1.538,0.067-3.071,0.072-4.606,0.098l0.064-0.001l-0.18-0.015c-2.202-0.181-4.382-0.479-6.574-0.712
			c-2.188-0.254-4.369-0.545-6.547-0.854l-0.365-0.052l-0.472-0.319c-3.206-2.171-6.371-4.397-9.501-6.668l-0.1-0.072l-0.156-0.15
			c-3.915-3.766-7.751-7.608-11.516-11.522l0.156,0.143c-4.321-3.766-8.568-7.621-12.721-11.587l-3.084-3.011l-0.737-0.715
			l-0.797-0.726l-1.569-1.483C162.941,10.002,160.883,7.98,158.883,5.883z"/>
	</g>
	<g>
		<path fill="#3E291C" d="M240.052,27.637c1.524-0.162,3.043-0.261,4.559-0.325c1.516-0.071,3.029-0.108,4.539-0.111l-0.18-0.002
			c2.112-0.357,4.231-0.616,6.351-0.874c2.12-0.24,4.241-0.461,6.365-0.629l-1.17,0.485c4.427-4.092,9.016-8,13.805-11.682
			l-0.159,0.164c0.75-0.76,1.485-1.532,2.257-2.272l2.302-2.234c0.792-0.724,1.562-1.467,2.373-2.175
			c0.804-0.713,1.616-1.42,2.466-2.096c-0.52,0.953-1.076,1.875-1.641,2.79c-0.557,0.921-1.157,1.807-1.733,2.712l-1.805,2.652
			c-0.597,0.888-1.23,1.746-1.85,2.614l-0.005,0.006l-0.154,0.158c-4.238,4.305-8.677,8.384-13.277,12.279l-0.54,0.458l-0.63,0.027
			c-2.13,0.093-4.262,0.132-6.396,0.151c-2.135,0.002-4.27,0.003-6.41-0.094l-0.225-0.01l0.045,0.008
			c-1.487-0.264-2.972-0.561-4.453-0.892C243.004,28.417,241.525,28.059,240.052,27.637z"/>
	</g>
</g>
</svg>
